<?xml version="1.0" encoding="UTF-8" standalone="no"?>
<svg
   xmlns:ns8="http://www.iki.fi/pav/software/textext/"
   xmlns:dc="http://purl.org/dc/elements/1.1/"
   xmlns:cc="http://creativecommons.org/ns#"
   xmlns:rdf="http://www.w3.org/1999/02/22-rdf-syntax-ns#"
   xmlns:svg="http://www.w3.org/2000/svg"
   xmlns="http://www.w3.org/2000/svg"
   xmlns:sodipodi="http://sodipodi.sourceforge.net/DTD/sodipodi-0.dtd"
   xmlns:inkscape="http://www.inkscape.org/namespaces/inkscape"
   sodipodi:docname="S2B_ExternalShield.svg"
   inkscape:version="1.0 (4035a4fb49, 2020-05-01)"
   id="svg3960"
   version="1.1"
   viewBox="0 0 210 297"
   height="297mm"
   width="210mm">
  <defs
     id="defs3954">
    <pattern
       id="EMFhbasepattern"
       patternUnits="userSpaceOnUse"
       width="6"
       height="6"
       x="0"
       y="0" />
    <g
       id="g3928">
      <symbol
         overflow="visible"
         id="symbol3886">
        <path
           style="stroke:none"
           d=""
           id="path3884" />
      </symbol>
      <symbol
         overflow="visible"
         id="symbol3890">
        <path
           style="stroke:none"
           d="m 3.296875,2.390625 c 0,-0.03125 0,-0.046875 -0.171875,-0.21875 C 1.890625,0.921875 1.5625,-0.96875 1.5625,-2.5 c 0,-1.734375 0.375,-3.46875 1.609375,-4.703125 0.125,-0.125 0.125,-0.140625 0.125,-0.171875 0,-0.078125 -0.03125,-0.109375 -0.09375,-0.109375 -0.109375,0 -1,0.6875 -1.59375,1.953125 -0.5,1.09375 -0.625,2.203125 -0.625,3.03125 0,0.78125 0.109375,1.984375 0.65625,3.125 C 2.25,1.84375 3.09375,2.5 3.203125,2.5 c 0.0625,0 0.09375,-0.03125 0.09375,-0.109375 z m 0,0"
           id="path3888" />
      </symbol>
      <symbol
         overflow="visible"
         id="symbol3894">
        <path
           style="stroke:none"
           d="m 2.875,-2.5 c 0,-0.765625 -0.109375,-1.96875 -0.65625,-3.109375 -0.59375,-1.21875 -1.453125,-1.875 -1.546875,-1.875 -0.0625,0 -0.109375,0.046875 -0.109375,0.109375 0,0.03125 0,0.046875 0.1875,0.234375 0.984375,0.984375 1.546875,2.5625 1.546875,4.640625 0,1.71875 -0.359375,3.46875 -1.59375,4.71875 C 0.5625,2.34375 0.5625,2.359375 0.5625,2.390625 0.5625,2.453125 0.609375,2.5 0.671875,2.5 0.765625,2.5 1.671875,1.8125 2.25,0.546875 2.765625,-0.546875 2.875,-1.65625 2.875,-2.5 Z m 0,0"
           id="path3892" />
      </symbol>
      <symbol
         overflow="visible"
         id="symbol3898">
        <path
           style="stroke:none"
           d=""
           id="path3896" />
      </symbol>
      <symbol
         overflow="visible"
         id="symbol3902">
        <path
           style="stroke:none"
           d="m 6.4375,-6.921875 c 0,-0.03125 -0.03125,-0.109375 -0.125,-0.109375 -0.046875,0 -0.046875,0.015625 -0.171875,0.15625 L 5.65625,-6.3125 c -0.25,-0.46875 -0.765625,-0.71875 -1.421875,-0.71875 -1.265625,0 -2.453125,1.15625 -2.453125,2.359375 0,0.796875 0.515625,1.265625 1.03125,1.40625 l 1.0625,0.28125 c 0.375,0.09375 0.921875,0.25 0.921875,1.0625 0,0.890625 -0.8125,1.828125 -1.796875,1.828125 -0.640625,0 -1.75,-0.21875 -1.75,-1.453125 0,-0.234375 0.0625,-0.484375 0.0625,-0.53125 0.015625,-0.046875 0.015625,-0.0625 0.015625,-0.078125 0,-0.09375 -0.0625,-0.109375 -0.109375,-0.109375 -0.046875,0 -0.078125,0.015625 -0.109375,0.046875 -0.03125,0.03125 -0.59375,2.3125 -0.59375,2.34375 0,0.046875 0.046875,0.09375 0.109375,0.09375 0.046875,0 0.0625,-0.015625 0.1875,-0.15625 L 1.296875,-0.5 c 0.421875,0.578125 1.109375,0.71875 1.6875,0.71875 1.359375,0 2.53125,-1.328125 2.53125,-2.5625 0,-0.6875 -0.34375,-1.03125 -0.484375,-1.171875 C 4.796875,-3.734375 4.640625,-3.78125 3.765625,-4 3.53125,-4.0625 3.1875,-4.171875 3.09375,-4.1875 2.828125,-4.28125 2.484375,-4.5625 2.484375,-5.09375 c 0,-0.8125 0.796875,-1.65625 1.75,-1.65625 0.8125,0 1.421875,0.4375 1.421875,1.546875 0,0.3125 -0.03125,0.5 -0.03125,0.5625 0,0 0,0.09375 0.109375,0.09375 0.109375,0 0.125,-0.03125 0.15625,-0.203125 z m 0,0"
           id="path3900" />
      </symbol>
      <symbol
         overflow="visible"
         id="symbol3906">
        <path
           style="stroke:none"
           d="m 4.375,-7.09375 c 0.046875,-0.140625 0.046875,-0.171875 0.046875,-0.1875 0,-0.109375 -0.078125,-0.203125 -0.1875,-0.203125 -0.078125,0 -0.140625,0.03125 -0.171875,0.09375 l -3.46875,9.5 C 0.546875,2.25 0.546875,2.28125 0.546875,2.296875 0.546875,2.40625 0.640625,2.5 0.75,2.5 0.875,2.5 0.90625,2.421875 0.96875,2.25 Z m 0,0"
           id="path3904" />
      </symbol>
      <symbol
         overflow="visible"
         id="symbol3910">
        <path
           style="stroke:none"
           d="M 1.59375,-0.78125 C 1.5,-0.390625 1.46875,-0.3125 0.6875,-0.3125 c -0.171875,0 -0.265625,0 -0.265625,0.203125 C 0.421875,0 0.515625,0 0.6875,0 H 4.25 C 5.828125,0 7,-1.171875 7,-2.15625 7,-2.875 6.421875,-3.453125 5.453125,-3.5625 6.484375,-3.75 7.53125,-4.484375 7.53125,-5.4375 c 0,-0.734375 -0.65625,-1.375 -1.84375,-1.375 H 2.328125 c -0.1875,0 -0.28125,0 -0.28125,0.203125 0,0.109375 0.09375,0.109375 0.28125,0.109375 0.015625,0 0.203125,0 0.375,0.015625 0.171875,0.03125 0.265625,0.03125 0.265625,0.171875 0,0.03125 -0.015625,0.0625 -0.03125,0.1875 z m 1.5,-2.875 0.625,-2.46875 C 3.8125,-6.46875 3.828125,-6.5 4.25,-6.5 h 1.296875 c 0.875,0 1.078125,0.59375 1.078125,1.03125 0,0.875 -0.859375,1.8125 -2.0625,1.8125 z m -0.4375,3.34375 c -0.140625,0 -0.15625,0 -0.21875,0 -0.109375,-0.015625 -0.140625,-0.03125 -0.140625,-0.109375 0,-0.03125 0,-0.046875 0.0625,-0.21875 l 0.6875,-2.78125 h 1.875 c 0.953125,0 1.15625,0.734375 1.15625,1.15625 C 6.078125,-1.28125 5.1875,-0.3125 4,-0.3125 Z m 0,0"
           id="path3908" />
      </symbol>
      <symbol
         overflow="visible"
         id="symbol3914">
        <path
           style="stroke:none"
           d=""
           id="path3912" />
      </symbol>
      <symbol
         overflow="visible"
         id="symbol3918">
        <path
           style="stroke:none"
           d="M 3.984375,-4.625 C 3.984375,-4.640625 4,-4.734375 4,-4.734375 4,-4.78125 3.984375,-4.84375 3.890625,-4.84375 3.75,-4.84375 3.171875,-4.78125 3,-4.765625 c -0.046875,0 -0.15625,0.015625 -0.15625,0.15625 0,0.09375 0.109375,0.09375 0.1875,0.09375 0.328125,0 0.328125,0.0625 0.328125,0.109375 0,0.046875 0,0.09375 -0.015625,0.15625 L 2.9375,-2.65625 c -0.140625,-0.234375 -0.375,-0.421875 -0.71875,-0.421875 -0.890625,0 -1.796875,0.984375 -1.796875,1.984375 0,0.6875 0.453125,1.15625 1.0625,1.15625 0.375,0 0.703125,-0.203125 0.984375,-0.484375 C 2.59375,0 3,0.0625 3.1875,0.0625 c 0.25,0 0.421875,-0.140625 0.546875,-0.359375 0.15625,-0.28125 0.25,-0.671875 0.25,-0.703125 0,-0.09375 -0.09375,-0.09375 -0.109375,-0.09375 -0.109375,0 -0.109375,0.03125 -0.15625,0.21875 C 3.625,-0.53125 3.5,-0.125 3.203125,-0.125 3.03125,-0.125 2.96875,-0.28125 2.96875,-0.46875 c 0,-0.125 0.015625,-0.1875 0.046875,-0.28125 z M 2.5,-0.875 C 2.453125,-0.671875 2.296875,-0.53125 2.140625,-0.40625 2.078125,-0.34375 1.796875,-0.125 1.5,-0.125 c -0.265625,0 -0.515625,-0.1875 -0.515625,-0.671875 0,-0.375 0.203125,-1.140625 0.375,-1.421875 0.3125,-0.5625 0.671875,-0.65625 0.859375,-0.65625 0.484375,0 0.625,0.53125 0.625,0.609375 0,0.015625 -0.015625,0.078125 -0.015625,0.09375 z m 0,0"
           id="path3916" />
      </symbol>
      <symbol
         overflow="visible"
         id="symbol3922">
        <path
           style="stroke:none"
           d="m 3,-2.625 c -0.171875,0.046875 -0.296875,0.1875 -0.296875,0.328125 0,0.171875 0.140625,0.234375 0.234375,0.234375 0.078125,0 0.34375,-0.046875 0.34375,-0.40625 0,-0.453125 -0.5,-0.609375 -0.9375,-0.609375 -1.078125,0 -1.28125,0.8125 -1.28125,1.015625 0,0.265625 0.15625,0.4375 0.25,0.515625 0.171875,0.140625 0.296875,0.171875 0.78125,0.25 0.15625,0.03125 0.59375,0.109375 0.59375,0.453125 0,0.125 -0.078125,0.390625 -0.359375,0.5625 C 2.046875,-0.125 1.703125,-0.125 1.625,-0.125 1.34375,-0.125 0.953125,-0.1875 0.78125,-0.421875 1.015625,-0.453125 1.171875,-0.625 1.171875,-0.8125 c 0,-0.171875 -0.125,-0.265625 -0.265625,-0.265625 -0.203125,0 -0.40625,0.171875 -0.40625,0.46875 0,0.421875 0.4375,0.671875 1.109375,0.671875 1.296875,0 1.53125,-0.875 1.53125,-1.140625 0,-0.640625 -0.703125,-0.765625 -0.96875,-0.8125 -0.0625,-0.015625 -0.234375,-0.046875 -0.28125,-0.0625 -0.25,-0.046875 -0.375,-0.1875 -0.375,-0.34375 0,-0.15625 0.125,-0.34375 0.28125,-0.453125 0.1875,-0.109375 0.421875,-0.125 0.546875,-0.125 0.140625,0 0.5,0.015625 0.65625,0.25 z m 0,0"
           id="path3920" />
      </symbol>
      <symbol
         overflow="visible"
         id="symbol3926">
        <path
           style="stroke:none"
           d="m 1.640625,-1.40625 c 0,-0.046875 0.171875,-0.671875 0.171875,-0.703125 0.015625,-0.0625 0.21875,-0.40625 0.453125,-0.578125 0.0625,-0.046875 0.25,-0.1875 0.5625,-0.1875 0.0625,0 0.234375,0 0.375,0.09375 -0.21875,0.0625 -0.296875,0.265625 -0.296875,0.390625 0,0.140625 0.109375,0.25 0.265625,0.25 0.171875,0 0.390625,-0.125 0.390625,-0.421875 0,-0.359375 -0.375,-0.515625 -0.734375,-0.515625 -0.359375,0 -0.671875,0.15625 -0.984375,0.5 -0.125,-0.421875 -0.546875,-0.5 -0.71875,-0.5 -0.25,0 -0.421875,0.171875 -0.546875,0.359375 -0.15625,0.265625 -0.25,0.671875 -0.25,0.71875 0,0.078125 0.09375,0.078125 0.125,0.078125 0.09375,0 0.09375,-0.015625 0.140625,-0.203125 0.109375,-0.421875 0.25,-0.75 0.515625,-0.75 0.1875,0 0.234375,0.15625 0.234375,0.34375 0,0.125 -0.0625,0.390625 -0.125,0.578125 -0.046875,0.1875 -0.109375,0.46875 -0.140625,0.625 L 0.84375,-0.4375 C 0.828125,-0.34375 0.78125,-0.171875 0.78125,-0.15625 0.78125,0 0.90625,0.0625 1.015625,0.0625 1.125,0.0625 1.265625,0 1.3125,-0.125 1.328125,-0.171875 1.40625,-0.484375 1.453125,-0.65625 Z m 0,0"
           id="path3924" />
      </symbol>
    </g>
  </defs>
  <sodipodi:namedview
     inkscape:window-maximized="0"
     inkscape:window-y="48"
     inkscape:window-x="504"
     inkscape:window-height="1040"
     inkscape:window-width="1274"
     showgrid="false"
     inkscape:document-rotation="0"
     inkscape:current-layer="layer1"
     inkscape:document-units="mm"
     inkscape:cy="428.01381"
     inkscape:cx="371.2753"
     inkscape:zoom="1.4"
     inkscape:pageshadow="2"
     inkscape:pageopacity="0.0"
     borderopacity="1.0"
     bordercolor="#666666"
     pagecolor="#ffffff"
     id="base" />
  <metadata
     id="metadata3957">
    <rdf:RDF>
      <cc:Work
         rdf:about="">
        <dc:format>image/svg+xml</dc:format>
        <dc:type
           rdf:resource="http://purl.org/dc/dcmitype/StillImage" />
        <dc:title></dc:title>
      </cc:Work>
    </rdf:RDF>
  </metadata>
  <g
     id="layer1"
     inkscape:groupmode="layer"
     inkscape:label="Layer 1">
    <path
       style="fill:#ffffff;fill-opacity:1;fill-rule:evenodd;stroke:none;stroke-width:0.176244"
       d="M 73.451448,53.513526 V 111.94226 H 149.35584 V 53.513526 Z"
       id="path4526" />
    <path
       style="fill:none;stroke:#262626;stroke-width:0.121358px;stroke-linecap:butt;stroke-linejoin:round;stroke-miterlimit:4;stroke-dasharray:none;stroke-opacity:1"
       d="M 73.451448,111.94226 H 149.35584"
       id="path4528" />
    <path
       style="fill:none;stroke:#262626;stroke-width:0.121358px;stroke-linecap:butt;stroke-linejoin:round;stroke-miterlimit:4;stroke-dasharray:none;stroke-opacity:1"
       d="M 73.451448,53.513526 H 149.35584"
       id="path4530" />
    <path
       style="fill:none;stroke:#262626;stroke-width:0.121358px;stroke-linecap:butt;stroke-linejoin:round;stroke-miterlimit:4;stroke-dasharray:none;stroke-opacity:1"
       d="m 73.451448,111.94226 v -0.75022"
       id="path4532" />
    <path
       style="fill:none;stroke:#262626;stroke-width:0.121358px;stroke-linecap:butt;stroke-linejoin:round;stroke-miterlimit:4;stroke-dasharray:none;stroke-opacity:1"
       d="m 86.105857,111.94226 v -0.75022"
       id="path4534" />
    <path
       style="fill:none;stroke:#262626;stroke-width:0.121358px;stroke-linecap:butt;stroke-linejoin:round;stroke-miterlimit:4;stroke-dasharray:none;stroke-opacity:1"
       d="m 98.760268,111.94226 v -0.75022"
       id="path4536" />
    <path
       style="fill:none;stroke:#262626;stroke-width:0.121358px;stroke-linecap:butt;stroke-linejoin:round;stroke-miterlimit:4;stroke-dasharray:none;stroke-opacity:1"
       d="m 111.40365,111.94226 v -0.75022"
       id="path4538" />
    <path
       style="fill:none;stroke:#262626;stroke-width:0.121358px;stroke-linecap:butt;stroke-linejoin:round;stroke-miterlimit:4;stroke-dasharray:none;stroke-opacity:1"
       d="m 124.05805,111.94226 v -0.75022"
       id="path4540" />
    <path
       style="fill:none;stroke:#262626;stroke-width:0.121358px;stroke-linecap:butt;stroke-linejoin:round;stroke-miterlimit:4;stroke-dasharray:none;stroke-opacity:1"
       d="m 136.71246,111.94226 v -0.75022"
       id="path4542" />
    <path
       style="fill:none;stroke:#262626;stroke-width:0.121358px;stroke-linecap:butt;stroke-linejoin:round;stroke-miterlimit:4;stroke-dasharray:none;stroke-opacity:1"
       d="m 149.35584,111.94226 v -0.75022"
       id="path4544" />
    <path
       style="fill:none;stroke:#262626;stroke-width:0.121358px;stroke-linecap:butt;stroke-linejoin:round;stroke-miterlimit:4;stroke-dasharray:none;stroke-opacity:1"
       d="m 73.451448,53.513526 v 0.761251"
       id="path4546" />
    <path
       style="fill:none;stroke:#262626;stroke-width:0.121358px;stroke-linecap:butt;stroke-linejoin:round;stroke-miterlimit:4;stroke-dasharray:none;stroke-opacity:1"
       d="m 86.105857,53.513526 v 0.761251"
       id="path4548" />
    <path
       style="fill:none;stroke:#262626;stroke-width:0.121358px;stroke-linecap:butt;stroke-linejoin:round;stroke-miterlimit:4;stroke-dasharray:none;stroke-opacity:1"
       d="m 98.760268,53.513526 v 0.761251"
       id="path4550" />
    <path
       style="fill:none;stroke:#262626;stroke-width:0.121358px;stroke-linecap:butt;stroke-linejoin:round;stroke-miterlimit:4;stroke-dasharray:none;stroke-opacity:1"
       d="m 111.40365,53.513526 v 0.761251"
       id="path4552" />
    <path
       style="fill:none;stroke:#262626;stroke-width:0.121358px;stroke-linecap:butt;stroke-linejoin:round;stroke-miterlimit:4;stroke-dasharray:none;stroke-opacity:1"
       d="m 124.05805,53.513526 v 0.761251"
       id="path4554" />
    <path
       style="fill:none;stroke:#262626;stroke-width:0.121358px;stroke-linecap:butt;stroke-linejoin:round;stroke-miterlimit:4;stroke-dasharray:none;stroke-opacity:1"
       d="m 136.71246,53.513526 v 0.761251"
       id="path4556" />
    <path
       style="fill:none;stroke:#262626;stroke-width:0.121358px;stroke-linecap:butt;stroke-linejoin:round;stroke-miterlimit:4;stroke-dasharray:none;stroke-opacity:1"
       d="m 149.35584,53.513526 v 0.761251"
       id="path4558" />
    <text
       xml:space="preserve"
       style="font-style:normal;font-variant:normal;font-weight:400;font-size:3.34864px;line-height:125%;font-family:Arial;text-align:start;letter-spacing:0px;word-spacing:0px;text-anchor:start;fill:#000000;fill-opacity:1;stroke:none;stroke-width:0.176244"
       x="72.56884"
       y="116.3553"
       id="text4564"><tspan
         style="stroke-width:0.176244"
         sodipodi:role="line"
         x="72.56884"
         y="116.3553"
         id="tspan4562"><tspan
           dx="0"
           dy="0"
           style="font-style:normal;font-variant:normal;font-weight:400;font-size:3.34864px;font-family:Arial;fill:#262626;stroke-width:0.176244"
           id="tspan4560">0</tspan></tspan></text>
    <text
       xml:space="preserve"
       style="font-style:normal;font-variant:normal;font-weight:400;font-size:3.34864px;line-height:125%;font-family:Arial;text-align:start;letter-spacing:0px;word-spacing:0px;text-anchor:start;fill:#000000;fill-opacity:1;stroke:none;stroke-width:0.176244"
       x="85.278412"
       y="116.3553"
       id="text4570"><tspan
         style="stroke-width:0.176244"
         sodipodi:role="line"
         x="85.278412"
         y="116.3553"
         id="tspan4568"><tspan
           dx="0"
           dy="0"
           style="font-style:normal;font-variant:normal;font-weight:400;font-size:3.34864px;font-family:Arial;fill:#262626;stroke-width:0.176244"
           id="tspan4566">1</tspan></tspan></text>
    <text
       xml:space="preserve"
       style="font-style:normal;font-variant:normal;font-weight:400;font-size:3.34864px;line-height:125%;font-family:Arial;text-align:start;letter-spacing:0px;word-spacing:0px;text-anchor:start;fill:#000000;fill-opacity:1;stroke:none;stroke-width:0.176244"
       x="97.811462"
       y="116.3553"
       id="text4576"><tspan
         style="stroke-width:0.176244"
         sodipodi:role="line"
         x="97.811462"
         y="116.3553"
         id="tspan4574"><tspan
           dx="0"
           dy="0"
           style="font-style:normal;font-variant:normal;font-weight:400;font-size:3.34864px;font-family:Arial;fill:#262626;stroke-width:0.176244"
           id="tspan4572">2</tspan></tspan></text>
    <text
       xml:space="preserve"
       style="font-style:normal;font-variant:normal;font-weight:400;font-size:3.34864px;line-height:125%;font-family:Arial;text-align:start;letter-spacing:0px;word-spacing:0px;text-anchor:start;fill:#000000;fill-opacity:1;stroke:none;stroke-width:0.176244"
       x="110.52103"
       y="116.3553"
       id="text4582"><tspan
         style="stroke-width:0.176244"
         sodipodi:role="line"
         x="110.52103"
         y="116.3553"
         id="tspan4580"><tspan
           dx="0"
           dy="0"
           style="font-style:normal;font-variant:normal;font-weight:400;font-size:3.34864px;font-family:Arial;fill:#262626;stroke-width:0.176244"
           id="tspan4578">3</tspan></tspan></text>
    <text
       xml:space="preserve"
       style="font-style:normal;font-variant:normal;font-weight:400;font-size:3.34864px;line-height:125%;font-family:Arial;text-align:start;letter-spacing:0px;word-spacing:0px;text-anchor:start;fill:#000000;fill-opacity:1;stroke:none;stroke-width:0.176244"
       x="123.23061"
       y="116.3553"
       id="text4588"><tspan
         style="stroke-width:0.176244"
         sodipodi:role="line"
         x="123.23061"
         y="116.3553"
         id="tspan4586"><tspan
           dx="0"
           dy="0"
           style="font-style:normal;font-variant:normal;font-weight:400;font-size:3.34864px;font-family:Arial;fill:#262626;stroke-width:0.176244"
           id="tspan4584">4</tspan></tspan></text>
    <text
       xml:space="preserve"
       style="font-style:normal;font-variant:normal;font-weight:400;font-size:3.34864px;line-height:125%;font-family:Arial;text-align:start;letter-spacing:0px;word-spacing:0px;text-anchor:start;fill:#000000;fill-opacity:1;stroke:none;stroke-width:0.176244"
       x="135.76366"
       y="116.3553"
       id="text4594"><tspan
         style="stroke-width:0.176244"
         sodipodi:role="line"
         x="135.76366"
         y="116.3553"
         id="tspan4592"><tspan
           dx="0"
           dy="0"
           style="font-style:normal;font-variant:normal;font-weight:400;font-size:3.34864px;font-family:Arial;fill:#262626;stroke-width:0.176244"
           id="tspan4590">5</tspan></tspan></text>
    <text
       xml:space="preserve"
       style="font-style:normal;font-variant:normal;font-weight:400;font-size:3.34864px;line-height:125%;font-family:Arial;text-align:start;letter-spacing:0px;word-spacing:0px;text-anchor:start;fill:#000000;fill-opacity:1;stroke:none;stroke-width:0.176244"
       x="148.47324"
       y="116.3553"
       id="text4600"><tspan
         style="stroke-width:0.176244"
         sodipodi:role="line"
         x="148.47324"
         y="116.3553"
         id="tspan4598"><tspan
           dx="0"
           dy="0"
           style="font-style:normal;font-variant:normal;font-weight:400;font-size:3.34864px;font-family:Arial;fill:#262626;stroke-width:0.176244"
           id="tspan4596">6</tspan></tspan></text>
    <text
       xml:space="preserve"
       style="font-style:normal;font-variant:normal;font-weight:400;font-size:3.71215px;line-height:125%;font-family:Arial;text-align:start;letter-spacing:0px;word-spacing:0px;text-anchor:start;fill:#000000;fill-opacity:1;stroke:none;stroke-width:0.176244"
       x="86.514069"
       y="121.29791"
       id="text4606"><tspan
         style="stroke-width:0.176244"
         sodipodi:role="line"
         x="86.514069"
         y="121.29791"
         id="tspan4604"><tspan
           dx="0"
           dy="0"
           style="font-style:normal;font-variant:normal;font-weight:400;font-size:3.71215px;font-family:Arial;fill:#262626;stroke-width:0.176244"
           id="tspan4602">External Shield Thickness (cm)</tspan></tspan></text>
    <path
       style="fill:none;stroke:#262626;stroke-width:0.121358px;stroke-linecap:butt;stroke-linejoin:round;stroke-miterlimit:4;stroke-dasharray:none;stroke-opacity:1"
       d="M 73.451448,111.94226 V 53.513526"
       id="path4608" />
    <path
       style="fill:none;stroke:#262626;stroke-width:0.121358px;stroke-linecap:butt;stroke-linejoin:round;stroke-miterlimit:4;stroke-dasharray:none;stroke-opacity:1"
       d="M 149.35584,111.94226 V 53.513526"
       id="path4610" />
    <path
       style="fill:none;stroke:#262626;stroke-width:0.121358px;stroke-linecap:butt;stroke-linejoin:round;stroke-miterlimit:4;stroke-dasharray:none;stroke-opacity:1"
       d="m 73.451448,111.94226 h 0.761251"
       id="path4612" />
    <path
       style="fill:none;stroke:#262626;stroke-width:0.121358px;stroke-linecap:butt;stroke-linejoin:round;stroke-miterlimit:4;stroke-dasharray:none;stroke-opacity:1"
       d="m 73.451448,92.46969 h 0.761251"
       id="path4614" />
    <path
       style="fill:none;stroke:#262626;stroke-width:0.121358px;stroke-linecap:butt;stroke-linejoin:round;stroke-miterlimit:4;stroke-dasharray:none;stroke-opacity:1"
       d="m 73.451448,72.997125 h 0.761251"
       id="path4616" />
    <path
       style="fill:none;stroke:#262626;stroke-width:0.121358px;stroke-linecap:butt;stroke-linejoin:round;stroke-miterlimit:4;stroke-dasharray:none;stroke-opacity:1"
       d="m 73.451448,53.513526 h 0.761251"
       id="path4618" />
    <path
       style="fill:none;stroke:#262626;stroke-width:0.121358px;stroke-linecap:butt;stroke-linejoin:round;stroke-miterlimit:4;stroke-dasharray:none;stroke-opacity:1"
       d="m 149.35584,111.94226 h -0.75022"
       id="path4620" />
    <path
       style="fill:none;stroke:#262626;stroke-width:0.121358px;stroke-linecap:butt;stroke-linejoin:round;stroke-miterlimit:4;stroke-dasharray:none;stroke-opacity:1"
       d="m 149.35584,92.46969 h -0.75022"
       id="path4622" />
    <path
       style="fill:none;stroke:#262626;stroke-width:0.121358px;stroke-linecap:butt;stroke-linejoin:round;stroke-miterlimit:4;stroke-dasharray:none;stroke-opacity:1"
       d="m 149.35584,72.997125 h -0.75022"
       id="path4624" />
    <path
       style="fill:none;stroke:#262626;stroke-width:0.121358px;stroke-linecap:butt;stroke-linejoin:round;stroke-miterlimit:4;stroke-dasharray:none;stroke-opacity:1"
       d="m 149.35584,53.513526 h -0.75022"
       id="path4626" />
    <path
       style="fill:none;stroke:#262626;stroke-width:0.121358px;stroke-linecap:butt;stroke-linejoin:round;stroke-miterlimit:4;stroke-dasharray:none;stroke-opacity:1"
       d="M 73.451448,111.94226 H 73.83759"
       id="path4628" />
    <path
       style="fill:none;stroke:#262626;stroke-width:0.121358px;stroke-linecap:butt;stroke-linejoin:round;stroke-miterlimit:4;stroke-dasharray:none;stroke-opacity:1"
       d="M 73.451448,106.08394 H 73.83759"
       id="path4630" />
    <path
       style="fill:none;stroke:#262626;stroke-width:0.121358px;stroke-linecap:butt;stroke-linejoin:round;stroke-miterlimit:4;stroke-dasharray:none;stroke-opacity:1"
       d="M 73.451448,102.6528 H 73.83759"
       id="path4632" />
    <path
       style="fill:none;stroke:#262626;stroke-width:0.121358px;stroke-linecap:butt;stroke-linejoin:round;stroke-miterlimit:4;stroke-dasharray:none;stroke-opacity:1"
       d="M 73.451448,100.22562 H 73.83759"
       id="path4634" />
    <path
       style="fill:none;stroke:#262626;stroke-width:0.121358px;stroke-linecap:butt;stroke-linejoin:round;stroke-miterlimit:4;stroke-dasharray:none;stroke-opacity:1"
       d="M 73.451448,98.339044 H 73.83759"
       id="path4636" />
    <path
       style="fill:none;stroke:#262626;stroke-width:0.121358px;stroke-linecap:butt;stroke-linejoin:round;stroke-miterlimit:4;stroke-dasharray:none;stroke-opacity:1"
       d="M 73.451448,96.794478 H 73.83759"
       id="path4638" />
    <path
       style="fill:none;stroke:#262626;stroke-width:0.121358px;stroke-linecap:butt;stroke-linejoin:round;stroke-miterlimit:4;stroke-dasharray:none;stroke-opacity:1"
       d="M 73.451448,95.49263 H 73.83759"
       id="path4640" />
    <path
       style="fill:none;stroke:#262626;stroke-width:0.121358px;stroke-linecap:butt;stroke-linejoin:round;stroke-miterlimit:4;stroke-dasharray:none;stroke-opacity:1"
       d="M 73.451448,94.356269 H 73.83759"
       id="path4642" />
    <path
       style="fill:none;stroke:#262626;stroke-width:0.121358px;stroke-linecap:butt;stroke-linejoin:round;stroke-miterlimit:4;stroke-dasharray:none;stroke-opacity:1"
       d="M 73.451448,93.36333 H 73.83759"
       id="path4644" />
    <path
       style="fill:none;stroke:#262626;stroke-width:0.121358px;stroke-linecap:butt;stroke-linejoin:round;stroke-miterlimit:4;stroke-dasharray:none;stroke-opacity:1"
       d="M 73.451448,92.46969 H 73.83759"
       id="path4646" />
    <path
       style="fill:none;stroke:#262626;stroke-width:0.121358px;stroke-linecap:butt;stroke-linejoin:round;stroke-miterlimit:4;stroke-dasharray:none;stroke-opacity:1"
       d="M 73.451448,86.611372 H 73.83759"
       id="path4648" />
    <path
       style="fill:none;stroke:#262626;stroke-width:0.121358px;stroke-linecap:butt;stroke-linejoin:round;stroke-miterlimit:4;stroke-dasharray:none;stroke-opacity:1"
       d="M 73.451448,83.180229 H 73.83759"
       id="path4650" />
    <path
       style="fill:none;stroke:#262626;stroke-width:0.121358px;stroke-linecap:butt;stroke-linejoin:round;stroke-miterlimit:4;stroke-dasharray:none;stroke-opacity:1"
       d="M 73.451448,80.742021 H 73.83759"
       id="path4652" />
    <path
       style="fill:none;stroke:#262626;stroke-width:0.121358px;stroke-linecap:butt;stroke-linejoin:round;stroke-miterlimit:4;stroke-dasharray:none;stroke-opacity:1"
       d="M 73.451448,78.855444 H 73.83759"
       id="path4654" />
    <path
       style="fill:none;stroke:#262626;stroke-width:0.121358px;stroke-linecap:butt;stroke-linejoin:round;stroke-miterlimit:4;stroke-dasharray:none;stroke-opacity:1"
       d="M 73.451448,77.310878 H 73.83759"
       id="path4656" />
    <path
       style="fill:none;stroke:#262626;stroke-width:0.121358px;stroke-linecap:butt;stroke-linejoin:round;stroke-miterlimit:4;stroke-dasharray:none;stroke-opacity:1"
       d="M 73.451448,76.009028 H 73.83759"
       id="path4658" />
    <path
       style="fill:none;stroke:#262626;stroke-width:0.121358px;stroke-linecap:butt;stroke-linejoin:round;stroke-miterlimit:4;stroke-dasharray:none;stroke-opacity:1"
       d="M 73.451448,74.883701 H 73.83759"
       id="path4660" />
    <path
       style="fill:none;stroke:#262626;stroke-width:0.121358px;stroke-linecap:butt;stroke-linejoin:round;stroke-miterlimit:4;stroke-dasharray:none;stroke-opacity:1"
       d="M 73.451448,73.890765 H 73.83759"
       id="path4662" />
    <path
       style="fill:none;stroke:#262626;stroke-width:0.121358px;stroke-linecap:butt;stroke-linejoin:round;stroke-miterlimit:4;stroke-dasharray:none;stroke-opacity:1"
       d="M 73.451448,72.997125 H 73.83759"
       id="path4664" />
    <path
       style="fill:none;stroke:#262626;stroke-width:0.121358px;stroke-linecap:butt;stroke-linejoin:round;stroke-miterlimit:4;stroke-dasharray:none;stroke-opacity:1"
       d="M 73.451448,67.127773 H 73.83759"
       id="path4666" />
    <path
       style="fill:none;stroke:#262626;stroke-width:0.121358px;stroke-linecap:butt;stroke-linejoin:round;stroke-miterlimit:4;stroke-dasharray:none;stroke-opacity:1"
       d="M 73.451448,63.707663 H 73.83759"
       id="path4668" />
    <path
       style="fill:none;stroke:#262626;stroke-width:0.121358px;stroke-linecap:butt;stroke-linejoin:round;stroke-miterlimit:4;stroke-dasharray:none;stroke-opacity:1"
       d="M 73.451448,61.269454 H 73.83759"
       id="path4670" />
    <path
       style="fill:none;stroke:#262626;stroke-width:0.121358px;stroke-linecap:butt;stroke-linejoin:round;stroke-miterlimit:4;stroke-dasharray:none;stroke-opacity:1"
       d="M 73.451448,59.382878 H 73.83759"
       id="path4672" />
    <path
       style="fill:none;stroke:#262626;stroke-width:0.121358px;stroke-linecap:butt;stroke-linejoin:round;stroke-miterlimit:4;stroke-dasharray:none;stroke-opacity:1"
       d="M 73.451448,57.838311 H 73.83759"
       id="path4674" />
    <path
       style="fill:none;stroke:#262626;stroke-width:0.121358px;stroke-linecap:butt;stroke-linejoin:round;stroke-miterlimit:4;stroke-dasharray:none;stroke-opacity:1"
       d="M 73.451448,56.536463 H 73.83759"
       id="path4676" />
    <path
       style="fill:none;stroke:#262626;stroke-width:0.121358px;stroke-linecap:butt;stroke-linejoin:round;stroke-miterlimit:4;stroke-dasharray:none;stroke-opacity:1"
       d="M 73.451448,55.411137 H 73.83759"
       id="path4678" />
    <path
       style="fill:none;stroke:#262626;stroke-width:0.121358px;stroke-linecap:butt;stroke-linejoin:round;stroke-miterlimit:4;stroke-dasharray:none;stroke-opacity:1"
       d="M 73.451448,54.407168 H 73.83759"
       id="path4680" />
    <path
       style="fill:none;stroke:#262626;stroke-width:0.121358px;stroke-linecap:butt;stroke-linejoin:round;stroke-miterlimit:4;stroke-dasharray:none;stroke-opacity:1"
       d="M 73.451448,53.513526 H 73.83759"
       id="path4682" />
    <path
       style="fill:none;stroke:#262626;stroke-width:0.121358px;stroke-linecap:butt;stroke-linejoin:round;stroke-miterlimit:4;stroke-dasharray:none;stroke-opacity:1"
       d="m 149.35584,111.94226 h -0.37511"
       id="path4684" />
    <path
       style="fill:none;stroke:#262626;stroke-width:0.121358px;stroke-linecap:butt;stroke-linejoin:round;stroke-miterlimit:4;stroke-dasharray:none;stroke-opacity:1"
       d="m 149.35584,106.08394 h -0.37511"
       id="path4686" />
    <path
       style="fill:none;stroke:#262626;stroke-width:0.121358px;stroke-linecap:butt;stroke-linejoin:round;stroke-miterlimit:4;stroke-dasharray:none;stroke-opacity:1"
       d="m 149.35584,102.6528 h -0.37511"
       id="path4688" />
    <path
       style="fill:none;stroke:#262626;stroke-width:0.121358px;stroke-linecap:butt;stroke-linejoin:round;stroke-miterlimit:4;stroke-dasharray:none;stroke-opacity:1"
       d="m 149.35584,100.22562 h -0.37511"
       id="path4690" />
    <path
       style="fill:none;stroke:#262626;stroke-width:0.121358px;stroke-linecap:butt;stroke-linejoin:round;stroke-miterlimit:4;stroke-dasharray:none;stroke-opacity:1"
       d="m 149.35584,98.339044 h -0.37511"
       id="path4692" />
    <path
       style="fill:none;stroke:#262626;stroke-width:0.121358px;stroke-linecap:butt;stroke-linejoin:round;stroke-miterlimit:4;stroke-dasharray:none;stroke-opacity:1"
       d="m 149.35584,96.794478 h -0.37511"
       id="path4694" />
    <path
       style="fill:none;stroke:#262626;stroke-width:0.121358px;stroke-linecap:butt;stroke-linejoin:round;stroke-miterlimit:4;stroke-dasharray:none;stroke-opacity:1"
       d="m 149.35584,95.49263 h -0.37511"
       id="path4696" />
    <path
       style="fill:none;stroke:#262626;stroke-width:0.121358px;stroke-linecap:butt;stroke-linejoin:round;stroke-miterlimit:4;stroke-dasharray:none;stroke-opacity:1"
       d="m 149.35584,94.356269 h -0.37511"
       id="path4698" />
    <path
       style="fill:none;stroke:#262626;stroke-width:0.121358px;stroke-linecap:butt;stroke-linejoin:round;stroke-miterlimit:4;stroke-dasharray:none;stroke-opacity:1"
       d="m 149.35584,93.36333 h -0.37511"
       id="path4700" />
    <path
       style="fill:none;stroke:#262626;stroke-width:0.121358px;stroke-linecap:butt;stroke-linejoin:round;stroke-miterlimit:4;stroke-dasharray:none;stroke-opacity:1"
       d="m 149.35584,92.46969 h -0.37511"
       id="path4702" />
    <path
       style="fill:none;stroke:#262626;stroke-width:0.121358px;stroke-linecap:butt;stroke-linejoin:round;stroke-miterlimit:4;stroke-dasharray:none;stroke-opacity:1"
       d="m 149.35584,86.611372 h -0.37511"
       id="path4704" />
    <path
       style="fill:none;stroke:#262626;stroke-width:0.121358px;stroke-linecap:butt;stroke-linejoin:round;stroke-miterlimit:4;stroke-dasharray:none;stroke-opacity:1"
       d="m 149.35584,83.180229 h -0.37511"
       id="path4706" />
    <path
       style="fill:none;stroke:#262626;stroke-width:0.121358px;stroke-linecap:butt;stroke-linejoin:round;stroke-miterlimit:4;stroke-dasharray:none;stroke-opacity:1"
       d="m 149.35584,80.742021 h -0.37511"
       id="path4708" />
    <path
       style="fill:none;stroke:#262626;stroke-width:0.121358px;stroke-linecap:butt;stroke-linejoin:round;stroke-miterlimit:4;stroke-dasharray:none;stroke-opacity:1"
       d="m 149.35584,78.855444 h -0.37511"
       id="path4710" />
    <path
       style="fill:none;stroke:#262626;stroke-width:0.121358px;stroke-linecap:butt;stroke-linejoin:round;stroke-miterlimit:4;stroke-dasharray:none;stroke-opacity:1"
       d="m 149.35584,77.310878 h -0.37511"
       id="path4712" />
    <path
       style="fill:none;stroke:#262626;stroke-width:0.121358px;stroke-linecap:butt;stroke-linejoin:round;stroke-miterlimit:4;stroke-dasharray:none;stroke-opacity:1"
       d="m 149.35584,76.009028 h -0.37511"
       id="path4714" />
    <path
       style="fill:none;stroke:#262626;stroke-width:0.121358px;stroke-linecap:butt;stroke-linejoin:round;stroke-miterlimit:4;stroke-dasharray:none;stroke-opacity:1"
       d="m 149.35584,74.883701 h -0.37511"
       id="path4716" />
    <path
       style="fill:none;stroke:#262626;stroke-width:0.121358px;stroke-linecap:butt;stroke-linejoin:round;stroke-miterlimit:4;stroke-dasharray:none;stroke-opacity:1"
       d="m 149.35584,73.890765 h -0.37511"
       id="path4718" />
    <path
       style="fill:none;stroke:#262626;stroke-width:0.121358px;stroke-linecap:butt;stroke-linejoin:round;stroke-miterlimit:4;stroke-dasharray:none;stroke-opacity:1"
       d="m 149.35584,72.997125 h -0.37511"
       id="path4720" />
    <path
       style="fill:none;stroke:#262626;stroke-width:0.121358px;stroke-linecap:butt;stroke-linejoin:round;stroke-miterlimit:4;stroke-dasharray:none;stroke-opacity:1"
       d="m 149.35584,67.127773 h -0.37511"
       id="path4722" />
    <path
       style="fill:none;stroke:#262626;stroke-width:0.121358px;stroke-linecap:butt;stroke-linejoin:round;stroke-miterlimit:4;stroke-dasharray:none;stroke-opacity:1"
       d="m 149.35584,63.707663 h -0.37511"
       id="path4724" />
    <path
       style="fill:none;stroke:#262626;stroke-width:0.121358px;stroke-linecap:butt;stroke-linejoin:round;stroke-miterlimit:4;stroke-dasharray:none;stroke-opacity:1"
       d="m 149.35584,61.269454 h -0.37511"
       id="path4726" />
    <path
       style="fill:none;stroke:#262626;stroke-width:0.121358px;stroke-linecap:butt;stroke-linejoin:round;stroke-miterlimit:4;stroke-dasharray:none;stroke-opacity:1"
       d="m 149.35584,59.382878 h -0.37511"
       id="path4728" />
    <path
       style="fill:none;stroke:#262626;stroke-width:0.121358px;stroke-linecap:butt;stroke-linejoin:round;stroke-miterlimit:4;stroke-dasharray:none;stroke-opacity:1"
       d="m 149.35584,57.838311 h -0.37511"
       id="path4730" />
    <path
       style="fill:none;stroke:#262626;stroke-width:0.121358px;stroke-linecap:butt;stroke-linejoin:round;stroke-miterlimit:4;stroke-dasharray:none;stroke-opacity:1"
       d="m 149.35584,56.536463 h -0.37511"
       id="path4732" />
    <path
       style="fill:none;stroke:#262626;stroke-width:0.121358px;stroke-linecap:butt;stroke-linejoin:round;stroke-miterlimit:4;stroke-dasharray:none;stroke-opacity:1"
       d="m 149.35584,55.411137 h -0.37511"
       id="path4734" />
    <path
       style="fill:none;stroke:#262626;stroke-width:0.121358px;stroke-linecap:butt;stroke-linejoin:round;stroke-miterlimit:4;stroke-dasharray:none;stroke-opacity:1"
       d="m 149.35584,54.407168 h -0.37511"
       id="path4736" />
    <path
       style="fill:none;stroke:#262626;stroke-width:0.121358px;stroke-linecap:butt;stroke-linejoin:round;stroke-miterlimit:4;stroke-dasharray:none;stroke-opacity:1"
       d="m 149.35584,53.513526 h -0.37511"
       id="path4738" />
    <text
       xml:space="preserve"
       style="font-style:normal;font-variant:normal;font-weight:400;font-size:3.34864px;line-height:125%;font-family:Arial;text-align:start;letter-spacing:0px;word-spacing:0px;text-anchor:start;fill:#000000;fill-opacity:1;stroke:none;stroke-width:0.176244"
       x="66.21405"
       y="113.70747"
       id="text4746"><tspan
         style="stroke-width:0.176244"
         sodipodi:role="line"
         x="66.21405"
         y="113.70747"
         id="tspan4744"><tspan
           dx="0"
           dy="0"
           style="font-style:normal;font-variant:normal;font-weight:400;font-size:3.34864px;font-family:Arial;fill:#262626;stroke-width:0.176244"
           id="tspan4740">10</tspan><tspan
           dx="0"
           dy="-1.5886964"
           style="font-style:normal;font-variant:normal;font-weight:400;font-size:2.64366px;font-family:Arial;fill:#262626;stroke-width:0.176244"
           id="tspan4742">-1</tspan></tspan></text>
    <text
       xml:space="preserve"
       style="font-style:normal;font-variant:normal;font-weight:400;font-size:3.34864px;line-height:125%;font-family:Arial;text-align:start;letter-spacing:0px;word-spacing:0px;text-anchor:start;fill:#000000;fill-opacity:1;stroke:none;stroke-width:0.176244"
       x="67.096664"
       y="94.290077"
       id="text4754"><tspan
         style="stroke-width:0.176244"
         sodipodi:role="line"
         x="67.096664"
         y="94.290077"
         id="tspan4752"><tspan
           dx="0"
           dy="0"
           style="font-style:normal;font-variant:normal;font-weight:400;font-size:3.34864px;font-family:Arial;fill:#262626;stroke-width:0.176244"
           id="tspan4748">10</tspan><tspan
           dx="0"
           dy="-1.5886964"
           style="font-style:normal;font-variant:normal;font-weight:400;font-size:2.64366px;font-family:Arial;fill:#262626;stroke-width:0.176244"
           id="tspan4750">0</tspan></tspan></text>
    <text
       xml:space="preserve"
       style="font-style:normal;font-variant:normal;font-weight:400;font-size:3.34864px;line-height:125%;font-family:Arial;text-align:start;letter-spacing:0px;word-spacing:0px;text-anchor:start;fill:#000000;fill-opacity:1;stroke:none;stroke-width:0.176244"
       x="67.096664"
       y="74.696144"
       id="text4762"><tspan
         style="stroke-width:0.176244"
         sodipodi:role="line"
         x="67.096664"
         y="74.696144"
         id="tspan4760"><tspan
           dx="0"
           dy="0"
           style="font-style:normal;font-variant:normal;font-weight:400;font-size:3.34864px;font-family:Arial;fill:#262626;stroke-width:0.176244"
           id="tspan4756">10</tspan><tspan
           dx="0"
           dy="-1.5886964"
           style="font-style:normal;font-variant:normal;font-weight:400;font-size:2.64366px;font-family:Arial;fill:#262626;stroke-width:0.176244"
           id="tspan4758">1</tspan></tspan></text>
    <text
       xml:space="preserve"
       style="font-style:normal;font-variant:normal;font-weight:400;font-size:3.34864px;line-height:125%;font-family:Arial;text-align:start;letter-spacing:0px;word-spacing:0px;text-anchor:start;fill:#000000;fill-opacity:1;stroke:none;stroke-width:0.176244"
       x="67.096664"
       y="55.278744"
       id="text4770"><tspan
         style="stroke-width:0.176244"
         sodipodi:role="line"
         x="67.096664"
         y="55.278744"
         id="tspan4768"><tspan
           dx="0"
           dy="0"
           style="font-style:normal;font-variant:normal;font-weight:400;font-size:3.34864px;font-family:Arial;fill:#262626;stroke-width:0.176244"
           id="tspan4764">10</tspan><tspan
           dx="0"
           dy="-1.5886964"
           style="font-style:normal;font-variant:normal;font-weight:400;font-size:2.64366px;font-family:Arial;fill:#262626;stroke-width:0.176244"
           id="tspan4766">2</tspan></tspan></text>
    <text
       xml:space="preserve"
       style="font-style:normal;font-variant:normal;font-weight:400;font-size:3.71215px;line-height:125%;font-family:Arial;text-align:start;letter-spacing:0px;word-spacing:0px;text-anchor:start;fill:#000000;fill-opacity:1;stroke:none;stroke-width:0.176244"
       transform="rotate(-90)"
       x="-111.05965"
       y="64.625359"
       id="text4840"><tspan
         style="stroke-width:0.176244"
         sodipodi:role="line"
         x="-111.05965"
         y="64.625359"
         id="tspan4838"><tspan
           dx="0"
           dy="0"
           style="font-style:normal;font-variant:normal;font-weight:400;font-size:3.71215px;font-family:Arial;fill:#262626;stroke-width:0.176244"
           id="tspan4772">P</tspan><tspan
           dx="0"
           dy="0"
           style="font-style:normal;font-variant:normal;font-weight:400;font-size:3.71215px;font-family:Arial;fill:#262626;stroke-width:0.176244"
           id="tspan4774">r</tspan><tspan
           dx="0"
           dy="0"
           style="font-style:normal;font-variant:normal;font-weight:400;font-size:3.71215px;font-family:Arial;fill:#262626;stroke-width:0.176244"
           id="tspan4776">o</tspan><tspan
           dx="0"
           dy="0"
           style="font-style:normal;font-variant:normal;font-weight:400;font-size:3.71215px;font-family:Arial;fill:#262626;stroke-width:0.176244"
           id="tspan4778">t</tspan><tspan
           dx="0"
           dy="0"
           style="font-style:normal;font-variant:normal;font-weight:400;font-size:3.71215px;font-family:Arial;fill:#262626;stroke-width:0.176244"
           id="tspan4780">o</tspan><tspan
           dx="0"
           dy="0"
           style="font-style:normal;font-variant:normal;font-weight:400;font-size:3.71215px;font-family:Arial;fill:#262626;stroke-width:0.176244"
           id="tspan4782">n</tspan><tspan
           dx="0"
           dy="0"
           style="font-style:normal;font-variant:normal;font-weight:400;font-size:3.71215px;font-family:Arial;fill:#262626;stroke-width:0.176244"
           id="tspan4784">s</tspan><tspan
           dx="0"
           dy="0"
           style="font-style:normal;font-variant:normal;font-weight:400;font-size:3.71215px;font-family:Arial;fill:#262626;stroke-width:0.176244"
           id="tspan4786"> </tspan><tspan
           dx="-0.50178742"
           dy="0"
           style="font-style:normal;font-variant:normal;font-weight:400;font-size:3.71215px;font-family:Arial;fill:#262626;stroke-width:0.176244"
           id="tspan4788">p</tspan><tspan
           dx="0"
           dy="0"
           style="font-style:normal;font-variant:normal;font-weight:400;font-size:3.71215px;font-family:Arial;fill:#262626;stroke-width:0.176244"
           id="tspan4790">e</tspan><tspan
           dx="0"
           dy="0"
           style="font-style:normal;font-variant:normal;font-weight:400;font-size:3.71215px;font-family:Arial;fill:#262626;stroke-width:0.176244"
           id="tspan4792">r</tspan><tspan
           dx="0"
           dy="0"
           style="font-style:normal;font-variant:normal;font-weight:400;font-size:3.71215px;font-family:Arial;fill:#262626;stroke-width:0.176244"
           id="tspan4794"> </tspan><tspan
           dx="0"
           dy="0"
           style="font-style:normal;font-variant:normal;font-weight:400;font-size:3.71215px;font-family:Arial;fill:#262626;stroke-width:0.176244"
           id="tspan4796">1</tspan><tspan
           dx="0"
           dy="0"
           style="font-style:normal;font-variant:normal;font-weight:400;font-size:3.71215px;font-family:Arial;fill:#262626;stroke-width:0.176244"
           id="tspan4798">0</tspan><tspan
           dx="0"
           dy="-1.7652185"
           style="font-style:normal;font-variant:normal;font-weight:400;font-size:2.81991px;font-family:Arial;fill:#262626;stroke-width:0.176244"
           id="tspan4800">1</tspan><tspan
           dx="0"
           dy="0"
           style="font-style:normal;font-variant:normal;font-weight:400;font-size:2.81991px;font-family:Arial;fill:#262626;stroke-width:0.176244"
           id="tspan4802">2</tspan><tspan
           dx="0"
           dy="1.7652185"
           style="font-style:normal;font-variant:normal;font-weight:400;font-size:3.71215px;font-family:Arial;fill:#262626;stroke-width:0.176244"
           id="tspan4804"> </tspan><tspan
           dx="0"
           dy="0"
           style="font-style:normal;font-variant:normal;font-weight:400;font-size:3.71215px;font-family:Arial;fill:#262626;stroke-width:0.176244"
           id="tspan4806">N</tspan><tspan
           dx="0"
           dy="0"
           style="font-style:normal;font-variant:normal;font-weight:400;font-size:3.71215px;font-family:Arial;fill:#262626;stroke-width:0.176244"
           id="tspan4808">e</tspan><tspan
           dx="0"
           dy="0"
           style="font-style:normal;font-variant:normal;font-weight:400;font-size:3.71215px;font-family:Arial;fill:#262626;stroke-width:0.176244"
           id="tspan4810">u</tspan><tspan
           dx="0"
           dy="0"
           style="font-style:normal;font-variant:normal;font-weight:400;font-size:3.71215px;font-family:Arial;fill:#262626;stroke-width:0.176244"
           id="tspan4812">t</tspan><tspan
           dx="0"
           dy="0"
           style="font-style:normal;font-variant:normal;font-weight:400;font-size:3.71215px;font-family:Arial;fill:#262626;stroke-width:0.176244"
           id="tspan4814">r</tspan><tspan
           dx="0"
           dy="0"
           style="font-style:normal;font-variant:normal;font-weight:400;font-size:3.71215px;font-family:Arial;fill:#262626;stroke-width:0.176244"
           id="tspan4816">o</tspan><tspan
           dx="0"
           dy="0"
           style="font-style:normal;font-variant:normal;font-weight:400;font-size:3.71215px;font-family:Arial;fill:#262626;stroke-width:0.176244"
           id="tspan4818">n</tspan><tspan
           dx="0"
           dy="0"
           style="font-style:normal;font-variant:normal;font-weight:400;font-size:3.71215px;font-family:Arial;fill:#262626;stroke-width:0.176244"
           id="tspan4820">s</tspan><tspan
           dx="0"
           dy="0"
           style="font-style:normal;font-variant:normal;font-weight:400;font-size:3.71215px;font-family:Arial;fill:#262626;stroke-width:0.176244"
           id="tspan4822"> </tspan><tspan
           dx="-0.50178742"
           dy="0"
           style="font-style:normal;font-variant:normal;font-weight:400;font-size:3.71215px;font-family:Arial;fill:#262626;stroke-width:0.176244"
           id="tspan4824">p</tspan><tspan
           dx="0"
           dy="0"
           style="font-style:normal;font-variant:normal;font-weight:400;font-size:3.71215px;font-family:Arial;fill:#262626;stroke-width:0.176244"
           id="tspan4826">e</tspan><tspan
           dx="0"
           dy="0"
           style="font-style:normal;font-variant:normal;font-weight:400;font-size:3.71215px;font-family:Arial;fill:#262626;stroke-width:0.176244"
           id="tspan4828">r</tspan><tspan
           dx="0"
           dy="0"
           style="font-style:normal;font-variant:normal;font-weight:400;font-size:3.71215px;font-family:Arial;fill:#262626;stroke-width:0.176244"
           id="tspan4830"> </tspan><tspan
           dx="0"
           dy="0"
           style="font-style:normal;font-variant:normal;font-weight:400;font-size:3.71215px;font-family:Arial;fill:#262626;stroke-width:0.176244"
           id="tspan4832">c</tspan><tspan
           dx="0"
           dy="0"
           style="font-style:normal;font-variant:normal;font-weight:400;font-size:3.71215px;font-family:Arial;fill:#262626;stroke-width:0.176244"
           id="tspan4834">m</tspan><tspan
           dx="0"
           dy="-1.7652185"
           style="font-style:normal;font-variant:normal;font-weight:400;font-size:2.81991px;font-family:Arial;fill:#262626;stroke-width:0.176244"
           id="tspan4836">2</tspan></tspan></text>
    <path
       style="fill:#ff0000;fill-opacity:1;fill-rule:nonzero;stroke:none;stroke-width:0.176244"
       d="m 72.281991,60.750922 1.169457,1.566631 1.18049,-1.566631 -1.18049,-1.566632 z"
       id="path4842" />
    <path
       style="fill:none;stroke:#000000;stroke-width:0.474402px;stroke-linecap:butt;stroke-linejoin:miter;stroke-miterlimit:10;stroke-dasharray:none;stroke-opacity:1"
       d="m 72.281991,60.750922 1.169457,1.566631 1.18049,-1.566631 -1.18049,-1.566632 z"
       id="path4844" />
    <path
       style="fill:#ff0000;fill-opacity:1;fill-rule:nonzero;stroke:none;stroke-width:0.176244"
       d="M 78.603679,62.21826 79.78417,63.784891 80.953627,62.21826 79.78417,60.651629 Z"
       id="path4846" />
    <path
       style="fill:none;stroke:#000000;stroke-width:0.474402px;stroke-linecap:butt;stroke-linejoin:miter;stroke-miterlimit:10;stroke-dasharray:none;stroke-opacity:1"
       d="M 78.603679,62.21826 79.78417,63.784891 80.953627,62.21826 79.78417,60.651629 Z"
       id="path4848" />
    <path
       style="fill:#ff0000;fill-opacity:1;fill-rule:nonzero;stroke:none;stroke-width:0.176244"
       d="m 84.925367,64.027609 1.18049,1.56663 1.180491,-1.56663 -1.180491,-1.566632 z"
       id="path4850" />
    <path
       style="fill:none;stroke:#000000;stroke-width:0.474402px;stroke-linecap:butt;stroke-linejoin:miter;stroke-miterlimit:10;stroke-dasharray:none;stroke-opacity:1"
       d="m 84.925367,64.027609 1.18049,1.56663 1.180491,-1.56663 -1.180491,-1.566632 z"
       id="path4852" />
    <path
       style="fill:#ff0000;fill-opacity:1;fill-rule:nonzero;stroke:none;stroke-width:0.176244"
       d="m 91.258089,66.090707 1.169457,1.566632 1.18049,-1.566632 -1.18049,-1.566631 z"
       id="path4854" />
    <path
       style="fill:none;stroke:#000000;stroke-width:0.474402px;stroke-linecap:butt;stroke-linejoin:miter;stroke-miterlimit:10;stroke-dasharray:none;stroke-opacity:1"
       d="m 91.258089,66.090707 1.169457,1.566632 1.18049,-1.566632 -1.18049,-1.566631 z"
       id="path4856" />
    <path
       style="fill:#ff0000;fill-opacity:1;fill-rule:nonzero;stroke:none;stroke-width:0.176244"
       d="m 97.579779,67.260165 1.180489,1.566631 1.169457,-1.566631 -1.169457,-1.566632 z"
       id="path4858" />
    <path
       style="fill:none;stroke:#000000;stroke-width:0.474402px;stroke-linecap:butt;stroke-linejoin:miter;stroke-miterlimit:10;stroke-dasharray:none;stroke-opacity:1"
       d="m 97.579779,67.260165 1.180489,1.566631 1.169457,-1.566631 -1.169457,-1.566632 z"
       id="path4860" />
    <path
       style="fill:#ff0000;fill-opacity:1;fill-rule:nonzero;stroke:none;stroke-width:0.176244"
       d="m 103.90147,69.212937 1.18049,1.566632 1.18048,-1.566632 -1.18048,-1.566631 z"
       id="path4862" />
    <path
       style="fill:none;stroke:#000000;stroke-width:0.474402px;stroke-linecap:butt;stroke-linejoin:miter;stroke-miterlimit:10;stroke-dasharray:none;stroke-opacity:1"
       d="m 103.90147,69.212937 1.18049,1.566632 1.18048,-1.566632 -1.18048,-1.566631 z"
       id="path4864" />
    <path
       style="fill:#ff0000;fill-opacity:1;fill-rule:nonzero;stroke:none;stroke-width:0.176244"
       d="m 110.23419,71.772505 1.16946,1.56663 1.18048,-1.56663 -1.18048,-1.566632 z"
       id="path4866" />
    <path
       style="fill:none;stroke:#000000;stroke-width:0.474402px;stroke-linecap:butt;stroke-linejoin:miter;stroke-miterlimit:10;stroke-dasharray:none;stroke-opacity:1"
       d="m 110.23419,71.772505 1.16946,1.56663 1.18048,-1.56663 -1.18048,-1.566632 z"
       id="path4868" />
    <path
       style="fill:#ff0000;fill-opacity:1;fill-rule:nonzero;stroke:none;stroke-width:0.176244"
       d="m 116.55587,74.111418 1.18049,1.555599 1.16947,-1.555599 -1.16947,-1.56663 z"
       id="path4870" />
    <path
       style="fill:none;stroke:#000000;stroke-width:0.474402px;stroke-linecap:butt;stroke-linejoin:miter;stroke-miterlimit:10;stroke-dasharray:none;stroke-opacity:1"
       d="m 116.55587,74.111418 1.18049,1.555599 1.16947,-1.555599 -1.16947,-1.56663 z"
       id="path4872" />
    <path
       style="fill:#ff0000;fill-opacity:1;fill-rule:nonzero;stroke:none;stroke-width:0.176244"
       d="m 122.87757,75.788376 1.18048,1.566632 1.18049,-1.566632 -1.18049,-1.555599 z"
       id="path4874" />
    <path
       style="fill:none;stroke:#000000;stroke-width:0.474402px;stroke-linecap:butt;stroke-linejoin:miter;stroke-miterlimit:10;stroke-dasharray:none;stroke-opacity:1"
       d="m 122.87757,75.788376 1.18048,1.566632 1.18049,-1.566632 -1.18049,-1.555599 z"
       id="path4876" />
    <path
       style="fill:#ff0000;fill-opacity:1;fill-rule:nonzero;stroke:none;stroke-width:0.176244"
       d="m 129.21028,76.880606 1.16946,1.56663 1.18049,-1.56663 -1.18049,-1.566632 z"
       id="path4878" />
    <path
       style="fill:none;stroke:#000000;stroke-width:0.474402px;stroke-linecap:butt;stroke-linejoin:miter;stroke-miterlimit:10;stroke-dasharray:none;stroke-opacity:1"
       d="m 129.21028,76.880606 1.16946,1.56663 1.18049,-1.56663 -1.18049,-1.566632 z"
       id="path4880" />
    <path
       style="fill:#ff0000;fill-opacity:1;fill-rule:nonzero;stroke:none;stroke-width:0.176244"
       d="m 135.53197,78.072128 1.18049,1.56663 1.16946,-1.56663 -1.16946,-1.566632 z"
       id="path4882" />
    <path
       style="fill:none;stroke:#000000;stroke-width:0.474402px;stroke-linecap:butt;stroke-linejoin:miter;stroke-miterlimit:10;stroke-dasharray:none;stroke-opacity:1"
       d="m 135.53197,78.072128 1.18049,1.56663 1.16946,-1.56663 -1.16946,-1.566632 z"
       id="path4884" />
    <path
       style="fill:#ff0000;fill-opacity:1;fill-rule:nonzero;stroke:none;stroke-width:0.176244"
       d="m 141.85366,79.462237 1.18049,1.566631 1.18049,-1.566631 -1.18049,-1.566632 z"
       id="path4886" />
    <path
       style="fill:none;stroke:#000000;stroke-width:0.474402px;stroke-linecap:butt;stroke-linejoin:miter;stroke-miterlimit:10;stroke-dasharray:none;stroke-opacity:1"
       d="m 141.85366,79.462237 1.18049,1.566631 1.18049,-1.566631 -1.18049,-1.566632 z"
       id="path4888" />
    <path
       style="fill:#ff0000;fill-opacity:1;fill-rule:nonzero;stroke:none;stroke-width:0.176244"
       d="m 148.18638,80.201422 1.16946,1.566632 1.18049,-1.566632 -1.18049,-1.566631 z"
       id="path4890" />
    <path
       style="fill:none;stroke:#000000;stroke-width:0.474402px;stroke-linecap:butt;stroke-linejoin:miter;stroke-miterlimit:10;stroke-dasharray:none;stroke-opacity:1"
       d="m 148.18638,80.201422 1.16946,1.566632 1.18049,-1.566632 -1.18049,-1.566631 z"
       id="path4892" />
    <path
       style="fill:#0000ff;fill-opacity:1;fill-rule:evenodd;stroke:none;stroke-width:0.176244"
       d="m 72.568839,66.686469 v 1.765218 h 1.765219 v -1.765218 z"
       id="path4894" />
    <path
       style="fill:none;stroke:#000000;stroke-width:0.474402px;stroke-linecap:butt;stroke-linejoin:miter;stroke-miterlimit:10;stroke-dasharray:none;stroke-opacity:1"
       d="m 72.568839,66.686469 v 1.765218 h 1.765219 v -1.765218 z"
       id="path4896" />
    <path
       style="fill:#0000ff;fill-opacity:1;fill-rule:evenodd;stroke:none;stroke-width:0.176244"
       d="m 78.90156,67.359458 v 1.765218 h 1.765219 v -1.765218 z"
       id="path4898" />
    <path
       style="fill:none;stroke:#000000;stroke-width:0.474402px;stroke-linecap:butt;stroke-linejoin:miter;stroke-miterlimit:10;stroke-dasharray:none;stroke-opacity:1"
       d="m 78.90156,67.359458 v 1.765218 h 1.765219 v -1.765218 z"
       id="path4900" />
    <path
       style="fill:#0000ff;fill-opacity:1;fill-rule:evenodd;stroke:none;stroke-width:0.176244"
       d="m 85.223249,67.800762 v 1.765219 h 1.765218 v -1.765219 z"
       id="path4902" />
    <path
       style="fill:none;stroke:#000000;stroke-width:0.474402px;stroke-linecap:butt;stroke-linejoin:miter;stroke-miterlimit:10;stroke-dasharray:none;stroke-opacity:1"
       d="m 85.223249,67.800762 v 1.765219 h 1.765218 v -1.765219 z"
       id="path4904" />
    <path
       style="fill:#0000ff;fill-opacity:1;fill-rule:evenodd;stroke:none;stroke-width:0.176244"
       d="m 91.544938,68.197937 v 1.765217 h 1.765218 v -1.765217 z"
       id="path4906" />
    <path
       style="fill:none;stroke:#000000;stroke-width:0.474402px;stroke-linecap:butt;stroke-linejoin:miter;stroke-miterlimit:10;stroke-dasharray:none;stroke-opacity:1"
       d="m 91.544938,68.197937 v 1.765217 h 1.765218 v -1.765217 z"
       id="path4908" />
    <path
       style="fill:#0000ff;fill-opacity:1;fill-rule:evenodd;stroke:none;stroke-width:0.176244"
       d="m 97.877657,68.109676 v 1.765219 h 1.76522 v -1.765219 z"
       id="path4910" />
    <path
       style="fill:none;stroke:#000000;stroke-width:0.474402px;stroke-linecap:butt;stroke-linejoin:miter;stroke-miterlimit:10;stroke-dasharray:none;stroke-opacity:1"
       d="m 97.877657,68.109676 v 1.765219 h 1.76522 v -1.765219 z"
       id="path4912" />
    <path
       style="fill:#0000ff;fill-opacity:1;fill-rule:evenodd;stroke:none;stroke-width:0.176244"
       d="m 104.19934,68.815763 v 1.765219 h 1.76522 v -1.765219 z"
       id="path4914" />
    <path
       style="fill:none;stroke:#000000;stroke-width:0.474402px;stroke-linecap:butt;stroke-linejoin:miter;stroke-miterlimit:10;stroke-dasharray:none;stroke-opacity:1"
       d="m 104.19934,68.815763 v 1.765219 h 1.76522 v -1.765219 z"
       id="path4916" />
    <path
       style="fill:#0000ff;fill-opacity:1;fill-rule:evenodd;stroke:none;stroke-width:0.176244"
       d="m 110.52104,69.378427 v 1.765219 h 1.76522 v -1.765219 z"
       id="path4918" />
    <path
       style="fill:none;stroke:#000000;stroke-width:0.474402px;stroke-linecap:butt;stroke-linejoin:miter;stroke-miterlimit:10;stroke-dasharray:none;stroke-opacity:1"
       d="m 110.52104,69.378427 v 1.765219 h 1.76522 v -1.765219 z"
       id="path4920" />
    <path
       style="fill:#0000ff;fill-opacity:1;fill-rule:evenodd;stroke:none;stroke-width:0.176244"
       d="m 116.85376,69.488752 v 1.765219 h 1.76521 v -1.765219 z"
       id="path4922" />
    <path
       style="fill:none;stroke:#000000;stroke-width:0.474402px;stroke-linecap:butt;stroke-linejoin:miter;stroke-miterlimit:10;stroke-dasharray:none;stroke-opacity:1"
       d="m 116.85376,69.488752 v 1.765219 h 1.76521 v -1.765219 z"
       id="path4924" />
    <path
       style="fill:#0000ff;fill-opacity:1;fill-rule:evenodd;stroke:none;stroke-width:0.176244"
       d="m 123.17544,69.488752 v 1.765219 h 1.76522 v -1.765219 z"
       id="path4926" />
    <path
       style="fill:none;stroke:#000000;stroke-width:0.474402px;stroke-linecap:butt;stroke-linejoin:miter;stroke-miterlimit:10;stroke-dasharray:none;stroke-opacity:1"
       d="m 123.17544,69.488752 v 1.765219 h 1.76522 v -1.765219 z"
       id="path4928" />
    <path
       style="fill:#0000ff;fill-opacity:1;fill-rule:evenodd;stroke:none;stroke-width:0.176244"
       d="m 129.49714,69.2681 v 1.765219 h 1.76521 V 69.2681 Z"
       id="path4930" />
    <path
       style="fill:none;stroke:#000000;stroke-width:0.474402px;stroke-linecap:butt;stroke-linejoin:miter;stroke-miterlimit:10;stroke-dasharray:none;stroke-opacity:1"
       d="m 129.49714,69.2681 v 1.765219 h 1.76521 V 69.2681 Z"
       id="path4932" />
    <path
       style="fill:#0000ff;fill-opacity:1;fill-rule:evenodd;stroke:none;stroke-width:0.176244"
       d="m 135.82985,69.488752 v 1.765219 h 1.76522 v -1.765219 z"
       id="path4934" />
    <path
       style="fill:none;stroke:#000000;stroke-width:0.474402px;stroke-linecap:butt;stroke-linejoin:miter;stroke-miterlimit:10;stroke-dasharray:none;stroke-opacity:1"
       d="m 135.82985,69.488752 v 1.765219 h 1.76522 v -1.765219 z"
       id="path4936" />
    <path
       style="fill:#0000ff;fill-opacity:1;fill-rule:evenodd;stroke:none;stroke-width:0.176244"
       d="m 142.15154,69.356362 v 1.765218 h 1.76522 v -1.765218 z"
       id="path4938" />
    <path
       style="fill:none;stroke:#000000;stroke-width:0.474402px;stroke-linecap:butt;stroke-linejoin:miter;stroke-miterlimit:10;stroke-dasharray:none;stroke-opacity:1"
       d="m 142.15154,69.356362 v 1.765218 h 1.76522 v -1.765218 z"
       id="path4940" />
    <path
       style="fill:#0000ff;fill-opacity:1;fill-rule:evenodd;stroke:none;stroke-width:0.176244"
       d="m 148.47323,69.124676 v 1.765219 h 1.76522 v -1.765219 z"
       id="path4942" />
    <path
       style="fill:none;stroke:#000000;stroke-width:0.474402px;stroke-linecap:butt;stroke-linejoin:miter;stroke-miterlimit:10;stroke-dasharray:none;stroke-opacity:1"
       d="m 148.47323,69.124676 v 1.765219 h 1.76522 v -1.765219 z"
       id="path4944" />
    <path
       style="fill:#ffff00;fill-opacity:1;fill-rule:nonzero;stroke:none;stroke-width:0.176244"
       d="m 74.631938,74.883701 c 0,-0.650924 -0.529566,-1.180489 -1.18049,-1.180489 -0.639891,0 -1.169457,0.529565 -1.169457,1.180489 0,0.650925 0.529566,1.169459 1.169457,1.169459 0.650924,0 1.18049,-0.518534 1.18049,-1.169459 z"
       id="path4946" />
    <path
       style="fill:#000000;fill-opacity:1;fill-rule:nonzero;stroke:none;stroke-width:0.176244"
       d="m 73.451448,73.934897 c 0.529566,0 0.948805,0.430272 0.948805,0.948804 v 0 c 0,0.518534 -0.419239,0.937773 -0.948805,0.937773 -0.518533,0 -0.937772,-0.419239 -0.937772,-0.937773 0,-0.518532 0.419239,-0.948804 0.937772,-0.948804 z m 0,-0.46337 c -0.772283,0 -1.412174,0.628858 -1.412174,1.412174 0,0.772283 0.639891,1.412175 1.412174,1.412175 0.783316,0 1.412175,-0.639892 1.412175,-1.412175 v 0 c 0,-0.783316 -0.628859,-1.412174 -1.412175,-1.412174 z"
       id="path4948" />
    <path
       style="fill:#ffff00;fill-opacity:1;fill-rule:nonzero;stroke:none;stroke-width:0.176244"
       d="m 80.953627,78.248649 c 0,-0.650925 -0.518534,-1.18049 -1.169457,-1.18049 -0.650925,0 -1.180491,0.529565 -1.180491,1.18049 0,0.650925 0.529566,1.18049 1.180491,1.18049 0.650923,0 1.169457,-0.529565 1.169457,-1.18049 z"
       id="path4950" />
    <path
       style="fill:#000000;fill-opacity:1;fill-rule:nonzero;stroke:none;stroke-width:0.176244"
       d="m 79.78417,77.310878 c 0.518532,0 0.937771,0.419239 0.937771,0.937771 v 0 c 0,0.518534 -0.419239,0.937773 -0.937771,0.937773 -0.518534,0 -0.948806,-0.419239 -0.948806,-0.937773 0,-0.518532 0.430272,-0.937771 0.948806,-0.937771 z m 0,-0.474404 c -0.783316,0 -1.412175,0.628859 -1.412175,1.412175 0,0.783316 0.628859,1.412175 1.412175,1.412175 0.772283,0 1.412173,-0.628859 1.412173,-1.412175 v 0 c 0,-0.783316 -0.63989,-1.412175 -1.412173,-1.412175 z"
       id="path4952" />
    <path
       style="fill:#ffff00;fill-opacity:1;fill-rule:nonzero;stroke:none;stroke-width:0.176244"
       d="m 87.286348,78.866475 c 0,-0.639892 -0.529566,-1.169456 -1.180491,-1.169456 -0.650923,0 -1.18049,0.529564 -1.18049,1.169456 0,0.650925 0.529567,1.180492 1.18049,1.180492 0.650925,0 1.180491,-0.529567 1.180491,-1.180492 z"
       id="path4954" />
    <path
       style="fill:#000000;fill-opacity:1;fill-rule:nonzero;stroke:none;stroke-width:0.176244"
       d="m 86.105857,77.928704 c 0.518534,0 0.937773,0.419239 0.937773,0.937771 v 0 c 0,0.529567 -0.419239,0.948806 -0.937773,0.948806 -0.518531,0 -0.937771,-0.419239 -0.937771,-0.948806 0,-0.518532 0.41924,-0.937771 0.937771,-0.937771 z m 0,-0.474402 c -0.783314,0 -1.412173,0.63989 -1.412173,1.412173 0,0.783316 0.628859,1.412175 1.412173,1.412175 0.783316,0 1.412175,-0.628859 1.412175,-1.412175 v 0 c 0,-0.772283 -0.628859,-1.412173 -1.412175,-1.412173 z"
       id="path4956" />
    <path
       style="fill:#ffff00;fill-opacity:1;fill-rule:nonzero;stroke:none;stroke-width:0.176244"
       d="m 93.608036,81.061966 c 0,-0.650925 -0.529565,-1.18049 -1.18049,-1.18049 -0.639892,0 -1.169457,0.529565 -1.169457,1.18049 0,0.650925 0.529565,1.169457 1.169457,1.169457 0.650925,0 1.18049,-0.518532 1.18049,-1.169457 z"
       id="path4958" />
    <path
       style="fill:#000000;fill-opacity:1;fill-rule:nonzero;stroke:none;stroke-width:0.176244"
       d="m 92.427546,80.113162 c 0.529566,0 0.948806,0.41924 0.948806,0.948804 v 0 c 0,0.518534 -0.41924,0.937773 -0.948806,0.937773 -0.518532,0 -0.937771,-0.419239 -0.937771,-0.937773 0,-0.529564 0.419239,-0.948804 0.937771,-0.948804 z m 0,-0.463371 c -0.772283,0 -1.412175,0.628859 -1.412175,1.412175 0,0.772284 0.639892,1.412175 1.412175,1.412175 0.783316,0 1.412175,-0.639891 1.412175,-1.412175 v 0 c 0,-0.783316 -0.628859,-1.412175 -1.412175,-1.412175 z"
       id="path4960" />
    <path
       style="fill:#ffff00;fill-opacity:1;fill-rule:nonzero;stroke:none;stroke-width:0.176244"
       d="m 99.929725,84.02974 c 0,-0.650924 -0.518534,-1.180489 -1.169457,-1.180489 -0.650925,0 -1.180489,0.529565 -1.180489,1.180489 0,0.650924 0.529564,1.18049 1.180489,1.18049 0.650923,0 1.169457,-0.529566 1.169457,-1.18049 z"
       id="path4962" />
    <path
       style="fill:#000000;fill-opacity:1;fill-rule:nonzero;stroke:none;stroke-width:0.176244"
       d="m 98.760268,83.091967 c 0.518532,0 0.937771,0.419239 0.937771,0.937773 v 0 c 0,0.518532 -0.419239,0.937772 -0.937771,0.937772 -0.518534,0 -0.948806,-0.41924 -0.948806,-0.937772 0,-0.518534 0.430272,-0.937773 0.948806,-0.937773 z m 0,-0.474402 c -0.783316,0 -1.412175,0.628859 -1.412175,1.412175 0,0.783314 0.628859,1.412174 1.412175,1.412174 0.772283,0 1.412172,-0.62886 1.412172,-1.412174 v 0 c 0,-0.783316 -0.639889,-1.412175 -1.412172,-1.412175 z"
       id="path4964" />
    <path
       style="fill:#ffff00;fill-opacity:1;fill-rule:nonzero;stroke:none;stroke-width:0.176244"
       d="m 106.26244,86.070774 c 0,-0.650925 -0.52956,-1.180491 -1.18048,-1.180491 -0.65093,0 -1.18049,0.529566 -1.18049,1.180491 0,0.650923 0.52956,1.18049 1.18049,1.18049 0.65092,0 1.18048,-0.529567 1.18048,-1.18049 z"
       id="path4966" />
    <path
       style="fill:#000000;fill-opacity:1;fill-rule:nonzero;stroke:none;stroke-width:0.176244"
       d="m 105.08196,85.133001 c 0.51853,0 0.93777,0.41924 0.93777,0.937773 v 0 c 0,0.518532 -0.41924,0.937772 -0.93777,0.937772 -0.51853,0 -0.93778,-0.41924 -0.93778,-0.937772 0,-0.518533 0.41925,-0.937773 0.93778,-0.937773 z m 0,-0.474402 c -0.78332,0 -1.41218,0.628859 -1.41218,1.412175 0,0.783314 0.62886,1.412174 1.41218,1.412174 0.78331,0 1.41217,-0.62886 1.41217,-1.412174 v 0 c 0,-0.783316 -0.62886,-1.412175 -1.41217,-1.412175 z"
       id="path4968" />
    <path
       style="fill:#ffff00;fill-opacity:1;fill-rule:nonzero;stroke:none;stroke-width:0.176244"
       d="m 112.58413,87.924252 c 0,-0.650924 -0.52956,-1.169456 -1.18048,-1.169456 -0.6399,0 -1.16946,0.518532 -1.16946,1.169456 0,0.650926 0.52956,1.18049 1.16946,1.18049 0.65092,0 1.18048,-0.529564 1.18048,-1.18049 z"
       id="path4970" />
    <path
       style="fill:#000000;fill-opacity:1;fill-rule:nonzero;stroke:none;stroke-width:0.176244"
       d="m 111.40365,86.98648 c 0.52956,0 0.9488,0.419239 0.9488,0.937772 v 0 c 0,0.518534 -0.41924,0.948807 -0.9488,0.948807 -0.51854,0 -0.93778,-0.430273 -0.93778,-0.948807 0,-0.518533 0.41924,-0.937772 0.93778,-0.937772 z m 0,-0.474402 c -0.77229,0 -1.41218,0.628858 -1.41218,1.412174 0,0.783316 0.63989,1.412176 1.41218,1.412176 0.78331,0 1.41217,-0.62886 1.41217,-1.412176 v 0 c 0,-0.783316 -0.62886,-1.412174 -1.41217,-1.412174 z"
       id="path4972" />
    <path
       style="fill:#ffff00;fill-opacity:1;fill-rule:nonzero;stroke:none;stroke-width:0.176244"
       d="m 118.90583,91.465723 c 0,-0.650925 -0.51854,-1.180491 -1.16947,-1.180491 -0.65092,0 -1.18049,0.529566 -1.18049,1.180491 0,0.650923 0.52957,1.180489 1.18049,1.180489 0.65093,0 1.16947,-0.529566 1.16947,-1.180489 z"
       id="path4974" />
    <path
       style="fill:#000000;fill-opacity:1;fill-rule:nonzero;stroke:none;stroke-width:0.176244"
       d="m 117.73636,90.52795 c 0.51854,0 0.93778,0.41924 0.93778,0.937773 v 0 c 0,0.518532 -0.41924,0.937771 -0.93778,0.937771 -0.51853,0 -0.9488,-0.419239 -0.9488,-0.937771 0,-0.518533 0.43027,-0.937773 0.9488,-0.937773 z m 0,-0.474402 c -0.78331,0 -1.41217,0.628859 -1.41217,1.412175 0,0.783315 0.62886,1.412172 1.41217,1.412172 0.77229,0 1.41218,-0.628857 1.41218,-1.412172 v 0 c 0,-0.783316 -0.63989,-1.412175 -1.41218,-1.412175 z"
       id="path4976" />
    <path
       style="fill:#ffff00;fill-opacity:1;fill-rule:nonzero;stroke:none;stroke-width:0.176244"
       d="m 125.23854,91.465723 c 0,-0.650925 -0.52956,-1.180491 -1.18049,-1.180491 -0.65092,0 -1.18048,0.529566 -1.18048,1.180491 0,0.650923 0.52956,1.180489 1.18048,1.180489 0.65093,0 1.18049,-0.529566 1.18049,-1.180489 z"
       id="path4978" />
    <path
       style="fill:#000000;fill-opacity:1;fill-rule:nonzero;stroke:none;stroke-width:0.176244"
       d="m 124.05805,90.52795 c 0.51854,0 0.93778,0.41924 0.93778,0.937773 v 0 c 0,0.518532 -0.41924,0.937771 -0.93778,0.937771 -0.51853,0 -0.93777,-0.419239 -0.93777,-0.937771 0,-0.518533 0.41924,-0.937773 0.93777,-0.937773 z m 0,-0.474402 c -0.78331,0 -1.41217,0.628859 -1.41217,1.412175 0,0.783315 0.62886,1.412172 1.41217,1.412172 0.78332,0 1.41218,-0.628857 1.41218,-1.412172 v 0 c 0,-0.783316 -0.62886,-1.412175 -1.41218,-1.412175 z"
       id="path4980" />
    <path
       style="fill:#ffff00;fill-opacity:1;fill-rule:nonzero;stroke:none;stroke-width:0.176244"
       d="m 131.56023,91.465723 c 0,-0.650925 -0.52957,-1.180491 -1.18049,-1.180491 -0.63988,0 -1.16946,0.529566 -1.16946,1.180491 0,0.650923 0.52958,1.180489 1.16946,1.180489 0.65092,0 1.18049,-0.529566 1.18049,-1.180489 z"
       id="path4982" />
    <path
       style="fill:#000000;fill-opacity:1;fill-rule:nonzero;stroke:none;stroke-width:0.176244"
       d="m 130.37974,90.52795 c 0.52956,0 0.94881,0.41924 0.94881,0.937773 v 0 c 0,0.518532 -0.41925,0.937771 -0.94881,0.937771 -0.51853,0 -0.93777,-0.419239 -0.93777,-0.937771 0,-0.518533 0.41924,-0.937773 0.93777,-0.937773 z m 0,-0.474402 c -0.77228,0 -1.41217,0.628859 -1.41217,1.412175 0,0.783315 0.63989,1.412172 1.41217,1.412172 0.78332,0 1.41217,-0.628857 1.41217,-1.412172 v 0 c 0,-0.783316 -0.62885,-1.412175 -1.41217,-1.412175 z"
       id="path4984" />
    <path
       style="fill:#ffff00;fill-opacity:1;fill-rule:nonzero;stroke:none;stroke-width:0.176244"
       d="m 137.88192,91.465723 c 0,-0.650925 -0.51854,-1.180491 -1.16946,-1.180491 -0.65092,0 -1.18049,0.529566 -1.18049,1.180491 0,0.650923 0.52957,1.180489 1.18049,1.180489 0.65092,0 1.16946,-0.529566 1.16946,-1.180489 z"
       id="path4986" />
    <path
       style="fill:#000000;fill-opacity:1;fill-rule:nonzero;stroke:none;stroke-width:0.176244"
       d="m 136.71246,90.52795 c 0.51853,0 0.93777,0.41924 0.93777,0.937773 v 0 c 0,0.518532 -0.41924,0.937771 -0.93777,0.937771 -0.51853,0 -0.94881,-0.419239 -0.94881,-0.937771 0,-0.518533 0.43028,-0.937773 0.94881,-0.937773 z m 0,-0.474402 c -0.78331,0 -1.41218,0.628859 -1.41218,1.412175 0,0.783315 0.62887,1.412172 1.41218,1.412172 0.77228,0 1.41218,-0.628857 1.41218,-1.412172 v 0 c 0,-0.783316 -0.6399,-1.412175 -1.41218,-1.412175 z"
       id="path4988" />
    <path
       style="fill:#ffff00;fill-opacity:1;fill-rule:nonzero;stroke:none;stroke-width:0.176244"
       d="m 144.21464,89.104742 c 0,-0.650923 -0.52956,-1.169457 -1.18049,-1.169457 -0.65093,0 -1.18049,0.518534 -1.18049,1.169457 0,0.650925 0.52956,1.18049 1.18049,1.18049 0.65093,0 1.18049,-0.529565 1.18049,-1.18049 z"
       id="path4990" />
    <path
       style="fill:#000000;fill-opacity:1;fill-rule:nonzero;stroke:none;stroke-width:0.176244"
       d="m 143.03415,88.166971 c 0.51853,0 0.93777,0.41924 0.93777,0.937771 v 0 c 0,0.518534 -0.41924,0.948806 -0.93777,0.948806 -0.51854,0 -0.93778,-0.430272 -0.93778,-0.948806 0,-0.518531 0.41924,-0.937771 0.93778,-0.937771 z m 0,-0.474404 c -0.78332,0 -1.41218,0.639892 -1.41218,1.412175 0,0.783316 0.62886,1.412175 1.41218,1.412175 0.78332,0 1.41217,-0.628859 1.41217,-1.412175 v 0 c 0,-0.772283 -0.62885,-1.412175 -1.41217,-1.412175 z"
       id="path4992" />
    <path
       style="fill:#ffff00;fill-opacity:1;fill-rule:nonzero;stroke:none;stroke-width:0.176244"
       d="m 150.53633,90.296264 c 0,-0.650924 -0.52957,-1.180489 -1.18049,-1.180489 -0.63989,0 -1.16946,0.529565 -1.16946,1.180489 0,0.639893 0.52957,1.169459 1.16946,1.169459 0.65092,0 1.18049,-0.529566 1.18049,-1.169459 z"
       id="path4994" />
    <path
       style="fill:#000000;fill-opacity:1;fill-rule:nonzero;stroke:none;stroke-width:0.176244"
       d="m 149.35584,89.347461 c 0.52956,0 0.9488,0.419239 0.9488,0.948803 v 0 c 0,0.518534 -0.41924,0.937774 -0.9488,0.937774 -0.51854,0 -0.93777,-0.41924 -0.93777,-0.937774 0,-0.529564 0.41923,-0.948803 0.93777,-0.948803 z m 0,-0.463371 c -0.77228,0 -1.41218,0.628858 -1.41218,1.412174 0,0.772284 0.6399,1.412176 1.41218,1.412176 0.78331,0 1.41217,-0.639892 1.41217,-1.412176 v 0 c 0,-0.783316 -0.62886,-1.412174 -1.41217,-1.412174 z"
       id="path4996" />
    <path
       style="fill:#000000;fill-opacity:1;fill-rule:nonzero;stroke:none;stroke-width:0.176244"
       d="m 76.088244,104.35182 1.632827,-0.67299 -0.04413,-0.11032 -1.632827,0.67298 z m 2.614729,-1.0812 1.103261,-0.45234 -0.02206,-0.0551 0.01103,0.0662 0.562664,-0.12135 -0.02206,-0.11033 -0.562664,0.11033 h -0.01103 l -1.103261,0.46336 z m 2.691959,-0.77228 1.73212,-0.35305 -0.0331,-0.11032 -1.721088,0.35305 z m 2.769185,-0.56266 1.73212,-0.34201 -0.0331,-0.12136 -1.721089,0.35304 z m 2.736089,-0.68403 1.654891,-0.60679 -0.0331,-0.11032 -1.654892,0.60678 z m 2.647827,-0.9819 1.654893,-0.606792 -0.0331,-0.110323 -1.654892,0.606785 z m 2.647827,-0.970867 0.253752,-0.09929 1.412175,-0.507504 -0.04413,-0.110322 -1.401141,0.507497 -0.25375,0.09929 z m 2.658862,-0.959839 1.665925,-0.606796 -0.04413,-0.110323 -1.654891,0.606796 z m 2.658861,-0.959839 1.268749,-0.463367 -0.02206,-0.05515 0.01103,0.06621 0.408206,-0.09929 -0.02207,-0.121361 -0.408207,0.09929 h -0.01103 L 97.46945,97.26891 Z m 2.702987,-0.80538 1.71006,-0.408205 -0.0221,-0.110329 -1.72109,0.408212 z m 2.74712,-0.650926 1.71006,-0.408207 -0.022,-0.110323 -1.72109,0.408208 z m 2.73609,-0.70609 1.67696,-0.562658 -0.0441,-0.11033 -1.66592,0.562666 z m 2.68093,-0.89364 1.67695,-0.562665 -0.0442,-0.110323 -1.67696,0.562665 z m 2.68092,-0.89364 0.36408,-0.132391 h 0.0111 l 1.25772,-0.540597 -0.0441,-0.110329 -1.26875,0.540596 0.022,0.05515 -0.0111,-0.05515 -0.37511,0.121361 z m 2.6037,-1.103263 1.6218,-0.706088 -0.0552,-0.09929 -1.61076,0.695055 z m 2.59267,-1.125327 1.50043,-0.650923 -0.0221,-0.05516 0.0111,0.05516 0.12136,-0.02207 -0.0331,-0.121359 -0.11032,0.0331 h -0.0111 l -1.51147,0.650924 z m 2.63679,-0.915707 1.72109,-0.408207 -0.0221,-0.110325 -1.72108,0.397174 z m 2.75815,-0.650923 1.72109,-0.397176 -0.0331,-0.110325 -1.72109,0.397173 z m 2.74712,-0.617828 1.73212,-0.330978 -0.0221,-0.110325 -1.73211,0.319945 z m 2.78022,-0.518532 1.73213,-0.319947 -0.0221,-0.121358 -1.73212,0.319947 z m 2.76919,-0.518534 0.4413,-0.07723 1.31288,-0.154455 -0.0221,-0.121361 -1.30185,0.154458 -0.4413,0.08826 z m 2.80228,-0.364076 1.75419,-0.20962 -0.0111,-0.110325 -1.75418,0.209619 z m 2.80228,-0.330978 1.15843,-0.143425 0.59576,-0.04413 -0.0111,-0.121358 -0.59576,0.05516 -1.15842,0.132391 z m 2.81332,-0.275815 1.75419,-0.154458 -0.0111,-0.110325 -1.75419,0.143424 z m 2.81332,-0.242717 1.75418,-0.143424 -0.0111,-0.12136 -1.75418,0.154457 z m 2.80228,-0.342013 1.73213,-0.330978 -0.0221,-0.121358 -1.73212,0.342011 z m 2.76919,-0.540598 1.73212,-0.330977 -0.0221,-0.121359 -1.73213,0.342011 z m -73.267594,19.549802 1.621795,-0.67299 -0.04413,-0.11033 -1.632827,0.67299 z"
       id="path4998" />
    <path
       style="fill:none;stroke:#000000;stroke-width:0.121358px;stroke-linecap:butt;stroke-linejoin:round;stroke-miterlimit:10;stroke-dasharray:none;stroke-opacity:1"
       d="M 73.451448,92.46969 H 149.35584"
       id="path5000" />
    <text
       xml:space="preserve"
       style="font-size:3.06824px;line-height:1.25;font-family:sans-serif;letter-spacing:0px;word-spacing:0px;fill:#ff0000;fill-opacity:1;stroke:#000000;stroke-width:0.102505;stroke-miterlimit:4;stroke-dasharray:none;stroke-opacity:1"
       x="121.7938"
       y="57.269581"
       id="text5321"><tspan
         sodipodi:role="line"
         id="tspan5319"
         x="121.7938"
         y="57.269581"
         style="fill:#ff0000;fill-opacity:1;stroke:#000000;stroke-width:0.102505;stroke-miterlimit:4;stroke-dasharray:none;stroke-opacity:1">Neutron-Induced</tspan></text>
    <text
       id="text5321-2"
       y="61.088123"
       x="112.08057"
       style="font-size:3.06824px;line-height:1.25;font-family:sans-serif;letter-spacing:0px;word-spacing:0px;fill:#ff0000;fill-opacity:1;stroke:#000000;stroke-width:0.102505;stroke-miterlimit:4;stroke-dasharray:none;stroke-opacity:1"
       xml:space="preserve"><tspan
         style="fill:#0000ff;fill-opacity:1;stroke:#000000;stroke-width:0.102505;stroke-miterlimit:4;stroke-dasharray:none;stroke-opacity:1"
         y="61.088123"
         x="112.08057"
         id="tspan5319-9"
         sodipodi:role="line">Down-Scattered (Liner)</tspan></text>
    <text
       xml:space="preserve"
       style="font-size:3.06824px;line-height:1.25;font-family:sans-serif;letter-spacing:0px;word-spacing:0px;fill:#ff0000;fill-opacity:1;stroke:#000000;stroke-width:0.102505;stroke-miterlimit:4;stroke-dasharray:none;stroke-opacity:1"
       x="106.80127"
       y="65.285774"
       id="text5321-2-7"><tspan
         sodipodi:role="line"
         id="tspan5319-9-6"
         x="106.80127"
         y="65.285774"
         style="fill:#ffff00;fill-opacity:1;stroke:#000000;stroke-width:0.102505;stroke-miterlimit:4;stroke-dasharray:none;stroke-opacity:1">Down-Scattered (No Liner)</tspan></text>
    <g
       id="g6122"
       ns8:jacobian_sqrt="0.352778"
       ns8:alignment="middle center"
       ns8:scale="1.0000000283464388"
       ns8:preamble="C:\\Users\\lahmann\\AppData\\Roaming\\inkscape\\extensions\\textext\\default_packages.tex"
       ns8:text="$(S/B)_{dsr}$"
       ns8:pdfconverter="inkscape"
       ns8:texconverter="pdflatex"
       ns8:version="1.0.1"
       transform="matrix(0.32874037,0,0,0.32874037,88.293418,101.42034)">
      <defs
         id="id-0ddac6a5-8ca4-43f6-b391-b494492ba2e0">
        <g
           id="g5438">
          <symbol
             overflow="visible"
             id="symbol5396">
            <path
               style="stroke:none"
               d=""
               id="path5394" />
          </symbol>
          <symbol
             overflow="visible"
             id="symbol5400">
            <path
               style="stroke:none"
               d="m 3.296875,2.390625 c 0,-0.03125 0,-0.046875 -0.171875,-0.21875 C 1.890625,0.921875 1.5625,-0.96875 1.5625,-2.5 c 0,-1.734375 0.375,-3.46875 1.609375,-4.703125 0.125,-0.125 0.125,-0.140625 0.125,-0.171875 0,-0.078125 -0.03125,-0.109375 -0.09375,-0.109375 -0.109375,0 -1,0.6875 -1.59375,1.953125 -0.5,1.09375 -0.625,2.203125 -0.625,3.03125 0,0.78125 0.109375,1.984375 0.65625,3.125 C 2.25,1.84375 3.09375,2.5 3.203125,2.5 c 0.0625,0 0.09375,-0.03125 0.09375,-0.109375 z m 0,0"
               id="path5398" />
          </symbol>
          <symbol
             overflow="visible"
             id="symbol5404">
            <path
               style="stroke:none"
               d="m 2.875,-2.5 c 0,-0.765625 -0.109375,-1.96875 -0.65625,-3.109375 -0.59375,-1.21875 -1.453125,-1.875 -1.546875,-1.875 -0.0625,0 -0.109375,0.046875 -0.109375,0.109375 0,0.03125 0,0.046875 0.1875,0.234375 0.984375,0.984375 1.546875,2.5625 1.546875,4.640625 0,1.71875 -0.359375,3.46875 -1.59375,4.71875 C 0.5625,2.34375 0.5625,2.359375 0.5625,2.390625 0.5625,2.453125 0.609375,2.5 0.671875,2.5 0.765625,2.5 1.671875,1.8125 2.25,0.546875 2.765625,-0.546875 2.875,-1.65625 2.875,-2.5 Z m 0,0"
               id="path5402" />
          </symbol>
          <symbol
             overflow="visible"
             id="symbol5408">
            <path
               style="stroke:none"
               d=""
               id="path5406" />
          </symbol>
          <symbol
             overflow="visible"
             id="symbol5412">
            <path
               style="stroke:none"
               d="m 6.4375,-6.921875 c 0,-0.03125 -0.03125,-0.109375 -0.125,-0.109375 -0.046875,0 -0.046875,0.015625 -0.171875,0.15625 L 5.65625,-6.3125 c -0.25,-0.46875 -0.765625,-0.71875 -1.421875,-0.71875 -1.265625,0 -2.453125,1.15625 -2.453125,2.359375 0,0.796875 0.515625,1.265625 1.03125,1.40625 l 1.0625,0.28125 c 0.375,0.09375 0.921875,0.25 0.921875,1.0625 0,0.890625 -0.8125,1.828125 -1.796875,1.828125 -0.640625,0 -1.75,-0.21875 -1.75,-1.453125 0,-0.234375 0.0625,-0.484375 0.0625,-0.53125 0.015625,-0.046875 0.015625,-0.0625 0.015625,-0.078125 0,-0.09375 -0.0625,-0.109375 -0.109375,-0.109375 -0.046875,0 -0.078125,0.015625 -0.109375,0.046875 -0.03125,0.03125 -0.59375,2.3125 -0.59375,2.34375 0,0.046875 0.046875,0.09375 0.109375,0.09375 0.046875,0 0.0625,-0.015625 0.1875,-0.15625 L 1.296875,-0.5 c 0.421875,0.578125 1.109375,0.71875 1.6875,0.71875 1.359375,0 2.53125,-1.328125 2.53125,-2.5625 0,-0.6875 -0.34375,-1.03125 -0.484375,-1.171875 C 4.796875,-3.734375 4.640625,-3.78125 3.765625,-4 3.53125,-4.0625 3.1875,-4.171875 3.09375,-4.1875 2.828125,-4.28125 2.484375,-4.5625 2.484375,-5.09375 c 0,-0.8125 0.796875,-1.65625 1.75,-1.65625 0.8125,0 1.421875,0.4375 1.421875,1.546875 0,0.3125 -0.03125,0.5 -0.03125,0.5625 0,0 0,0.09375 0.109375,0.09375 0.109375,0 0.125,-0.03125 0.15625,-0.203125 z m 0,0"
               id="path5410" />
          </symbol>
          <symbol
             overflow="visible"
             id="symbol5416">
            <path
               style="stroke:none"
               d="m 4.375,-7.09375 c 0.046875,-0.140625 0.046875,-0.171875 0.046875,-0.1875 0,-0.109375 -0.078125,-0.203125 -0.1875,-0.203125 -0.078125,0 -0.140625,0.03125 -0.171875,0.09375 l -3.46875,9.5 C 0.546875,2.25 0.546875,2.28125 0.546875,2.296875 0.546875,2.40625 0.640625,2.5 0.75,2.5 0.875,2.5 0.90625,2.421875 0.96875,2.25 Z m 0,0"
               id="path5414" />
          </symbol>
          <symbol
             overflow="visible"
             id="symbol5420">
            <path
               style="stroke:none"
               d="M 1.59375,-0.78125 C 1.5,-0.390625 1.46875,-0.3125 0.6875,-0.3125 c -0.171875,0 -0.265625,0 -0.265625,0.203125 C 0.421875,0 0.515625,0 0.6875,0 H 4.25 C 5.828125,0 7,-1.171875 7,-2.15625 7,-2.875 6.421875,-3.453125 5.453125,-3.5625 6.484375,-3.75 7.53125,-4.484375 7.53125,-5.4375 c 0,-0.734375 -0.65625,-1.375 -1.84375,-1.375 H 2.328125 c -0.1875,0 -0.28125,0 -0.28125,0.203125 0,0.109375 0.09375,0.109375 0.28125,0.109375 0.015625,0 0.203125,0 0.375,0.015625 0.171875,0.03125 0.265625,0.03125 0.265625,0.171875 0,0.03125 -0.015625,0.0625 -0.03125,0.1875 z m 1.5,-2.875 0.625,-2.46875 C 3.8125,-6.46875 3.828125,-6.5 4.25,-6.5 h 1.296875 c 0.875,0 1.078125,0.59375 1.078125,1.03125 0,0.875 -0.859375,1.8125 -2.0625,1.8125 z m -0.4375,3.34375 c -0.140625,0 -0.15625,0 -0.21875,0 -0.109375,-0.015625 -0.140625,-0.03125 -0.140625,-0.109375 0,-0.03125 0,-0.046875 0.0625,-0.21875 l 0.6875,-2.78125 h 1.875 c 0.953125,0 1.15625,0.734375 1.15625,1.15625 C 6.078125,-1.28125 5.1875,-0.3125 4,-0.3125 Z m 0,0"
               id="path5418" />
          </symbol>
          <symbol
             overflow="visible"
             id="symbol5424">
            <path
               style="stroke:none"
               d=""
               id="path5422" />
          </symbol>
          <symbol
             overflow="visible"
             id="symbol5428">
            <path
               style="stroke:none"
               d="M 3.984375,-4.625 C 3.984375,-4.640625 4,-4.734375 4,-4.734375 4,-4.78125 3.984375,-4.84375 3.890625,-4.84375 3.75,-4.84375 3.171875,-4.78125 3,-4.765625 c -0.046875,0 -0.15625,0.015625 -0.15625,0.15625 0,0.09375 0.109375,0.09375 0.1875,0.09375 0.328125,0 0.328125,0.0625 0.328125,0.109375 0,0.046875 0,0.09375 -0.015625,0.15625 L 2.9375,-2.65625 c -0.140625,-0.234375 -0.375,-0.421875 -0.71875,-0.421875 -0.890625,0 -1.796875,0.984375 -1.796875,1.984375 0,0.6875 0.453125,1.15625 1.0625,1.15625 0.375,0 0.703125,-0.203125 0.984375,-0.484375 C 2.59375,0 3,0.0625 3.1875,0.0625 c 0.25,0 0.421875,-0.140625 0.546875,-0.359375 0.15625,-0.28125 0.25,-0.671875 0.25,-0.703125 0,-0.09375 -0.09375,-0.09375 -0.109375,-0.09375 -0.109375,0 -0.109375,0.03125 -0.15625,0.21875 C 3.625,-0.53125 3.5,-0.125 3.203125,-0.125 3.03125,-0.125 2.96875,-0.28125 2.96875,-0.46875 c 0,-0.125 0.015625,-0.1875 0.046875,-0.28125 z M 2.5,-0.875 C 2.453125,-0.671875 2.296875,-0.53125 2.140625,-0.40625 2.078125,-0.34375 1.796875,-0.125 1.5,-0.125 c -0.265625,0 -0.515625,-0.1875 -0.515625,-0.671875 0,-0.375 0.203125,-1.140625 0.375,-1.421875 0.3125,-0.5625 0.671875,-0.65625 0.859375,-0.65625 0.484375,0 0.625,0.53125 0.625,0.609375 0,0.015625 -0.015625,0.078125 -0.015625,0.09375 z m 0,0"
               id="path5426" />
          </symbol>
          <symbol
             overflow="visible"
             id="symbol5432">
            <path
               style="stroke:none"
               d="m 3,-2.625 c -0.171875,0.046875 -0.296875,0.1875 -0.296875,0.328125 0,0.171875 0.140625,0.234375 0.234375,0.234375 0.078125,0 0.34375,-0.046875 0.34375,-0.40625 0,-0.453125 -0.5,-0.609375 -0.9375,-0.609375 -1.078125,0 -1.28125,0.8125 -1.28125,1.015625 0,0.265625 0.15625,0.4375 0.25,0.515625 0.171875,0.140625 0.296875,0.171875 0.78125,0.25 0.15625,0.03125 0.59375,0.109375 0.59375,0.453125 0,0.125 -0.078125,0.390625 -0.359375,0.5625 C 2.046875,-0.125 1.703125,-0.125 1.625,-0.125 1.34375,-0.125 0.953125,-0.1875 0.78125,-0.421875 1.015625,-0.453125 1.171875,-0.625 1.171875,-0.8125 c 0,-0.171875 -0.125,-0.265625 -0.265625,-0.265625 -0.203125,0 -0.40625,0.171875 -0.40625,0.46875 0,0.421875 0.4375,0.671875 1.109375,0.671875 1.296875,0 1.53125,-0.875 1.53125,-1.140625 0,-0.640625 -0.703125,-0.765625 -0.96875,-0.8125 -0.0625,-0.015625 -0.234375,-0.046875 -0.28125,-0.0625 -0.25,-0.046875 -0.375,-0.1875 -0.375,-0.34375 0,-0.15625 0.125,-0.34375 0.28125,-0.453125 0.1875,-0.109375 0.421875,-0.125 0.546875,-0.125 0.140625,0 0.5,0.015625 0.65625,0.25 z m 0,0"
               id="path5430" />
          </symbol>
          <symbol
             overflow="visible"
             id="symbol5436">
            <path
               style="stroke:none"
               d="m 1.640625,-1.40625 c 0,-0.046875 0.171875,-0.671875 0.171875,-0.703125 0.015625,-0.0625 0.21875,-0.40625 0.453125,-0.578125 0.0625,-0.046875 0.25,-0.1875 0.5625,-0.1875 0.0625,0 0.234375,0 0.375,0.09375 -0.21875,0.0625 -0.296875,0.265625 -0.296875,0.390625 0,0.140625 0.109375,0.25 0.265625,0.25 0.171875,0 0.390625,-0.125 0.390625,-0.421875 0,-0.359375 -0.375,-0.515625 -0.734375,-0.515625 -0.359375,0 -0.671875,0.15625 -0.984375,0.5 -0.125,-0.421875 -0.546875,-0.5 -0.71875,-0.5 -0.25,0 -0.421875,0.171875 -0.546875,0.359375 -0.15625,0.265625 -0.25,0.671875 -0.25,0.71875 0,0.078125 0.09375,0.078125 0.125,0.078125 0.09375,0 0.09375,-0.015625 0.140625,-0.203125 0.109375,-0.421875 0.25,-0.75 0.515625,-0.75 0.1875,0 0.234375,0.15625 0.234375,0.34375 0,0.125 -0.0625,0.390625 -0.125,0.578125 -0.046875,0.1875 -0.109375,0.46875 -0.140625,0.625 L 0.84375,-0.4375 C 0.828125,-0.34375 0.78125,-0.171875 0.78125,-0.15625 0.78125,0 0.90625,0.0625 1.015625,0.0625 1.125,0.0625 1.265625,0 1.3125,-0.125 1.328125,-0.171875 1.40625,-0.484375 1.453125,-0.65625 Z m 0,0"
               id="path5434" />
          </symbol>
        </g>
      </defs>
      <g
         id="id-39fa05f3-9d7d-468c-b2ed-3cc8eafeb901"
         transform="translate(-149.696,-127.281)">
        <g
           style="fill:#000000;fill-opacity:1"
           id="id-7b10750e-c63c-47dc-93d4-829b580c9b7f">
          <g
             id="g6093"
             transform="translate(148.712,134.765)">
            <path
               style="stroke:none"
               d="m 3.296875,2.390625 c 0,-0.03125 0,-0.046875 -0.171875,-0.21875 C 1.890625,0.921875 1.5625,-0.96875 1.5625,-2.5 c 0,-1.734375 0.375,-3.46875 1.609375,-4.703125 0.125,-0.125 0.125,-0.140625 0.125,-0.171875 0,-0.078125 -0.03125,-0.109375 -0.09375,-0.109375 -0.109375,0 -1,0.6875 -1.59375,1.953125 -0.5,1.09375 -0.625,2.203125 -0.625,3.03125 0,0.78125 0.109375,1.984375 0.65625,3.125 C 2.25,1.84375 3.09375,2.5 3.203125,2.5 c 0.0625,0 0.09375,-0.03125 0.09375,-0.109375 z m 0,0"
               id="id-2123be21-5f89-4891-8653-7470e2ed2f83" />
          </g>
        </g>
        <g
           style="fill:#000000;fill-opacity:1"
           id="id-bdbc24d7-b754-4a29-a5f2-79316692157d">
          <g
             id="g6097"
             transform="translate(152.587,134.765)">
            <path
               style="stroke:none"
               d="m 6.4375,-6.921875 c 0,-0.03125 -0.03125,-0.109375 -0.125,-0.109375 -0.046875,0 -0.046875,0.015625 -0.171875,0.15625 L 5.65625,-6.3125 c -0.25,-0.46875 -0.765625,-0.71875 -1.421875,-0.71875 -1.265625,0 -2.453125,1.15625 -2.453125,2.359375 0,0.796875 0.515625,1.265625 1.03125,1.40625 l 1.0625,0.28125 c 0.375,0.09375 0.921875,0.25 0.921875,1.0625 0,0.890625 -0.8125,1.828125 -1.796875,1.828125 -0.640625,0 -1.75,-0.21875 -1.75,-1.453125 0,-0.234375 0.0625,-0.484375 0.0625,-0.53125 0.015625,-0.046875 0.015625,-0.0625 0.015625,-0.078125 0,-0.09375 -0.0625,-0.109375 -0.109375,-0.109375 -0.046875,0 -0.078125,0.015625 -0.109375,0.046875 -0.03125,0.03125 -0.59375,2.3125 -0.59375,2.34375 0,0.046875 0.046875,0.09375 0.109375,0.09375 0.046875,0 0.0625,-0.015625 0.1875,-0.15625 L 1.296875,-0.5 c 0.421875,0.578125 1.109375,0.71875 1.6875,0.71875 1.359375,0 2.53125,-1.328125 2.53125,-2.5625 0,-0.6875 -0.34375,-1.03125 -0.484375,-1.171875 C 4.796875,-3.734375 4.640625,-3.78125 3.765625,-4 3.53125,-4.0625 3.1875,-4.171875 3.09375,-4.1875 2.828125,-4.28125 2.484375,-4.5625 2.484375,-5.09375 c 0,-0.8125 0.796875,-1.65625 1.75,-1.65625 0.8125,0 1.421875,0.4375 1.421875,1.546875 0,0.3125 -0.03125,0.5 -0.03125,0.5625 0,0 0,0.09375 0.109375,0.09375 0.109375,0 0.125,-0.03125 0.15625,-0.203125 z m 0,0"
               id="id-30f97e40-3600-4561-a819-2f53dcd580b1" />
          </g>
        </g>
        <g
           style="fill:#000000;fill-opacity:1"
           id="id-5fee21a0-e6d3-49c5-9776-b717b0397019">
          <g
             id="g6101"
             transform="translate(158.716,134.765)">
            <path
               style="stroke:none"
               d="m 4.375,-7.09375 c 0.046875,-0.140625 0.046875,-0.171875 0.046875,-0.1875 0,-0.109375 -0.078125,-0.203125 -0.1875,-0.203125 -0.078125,0 -0.140625,0.03125 -0.171875,0.09375 l -3.46875,9.5 C 0.546875,2.25 0.546875,2.28125 0.546875,2.296875 0.546875,2.40625 0.640625,2.5 0.75,2.5 0.875,2.5 0.90625,2.421875 0.96875,2.25 Z m 0,0"
               id="id-0c6ee443-29af-4a16-8721-5973ed788ceb" />
          </g>
          <g
             id="g6104"
             transform="translate(163.697,134.765)">
            <path
               style="stroke:none"
               d="M 1.59375,-0.78125 C 1.5,-0.390625 1.46875,-0.3125 0.6875,-0.3125 c -0.171875,0 -0.265625,0 -0.265625,0.203125 C 0.421875,0 0.515625,0 0.6875,0 H 4.25 C 5.828125,0 7,-1.171875 7,-2.15625 7,-2.875 6.421875,-3.453125 5.453125,-3.5625 6.484375,-3.75 7.53125,-4.484375 7.53125,-5.4375 c 0,-0.734375 -0.65625,-1.375 -1.84375,-1.375 H 2.328125 c -0.1875,0 -0.28125,0 -0.28125,0.203125 0,0.109375 0.09375,0.109375 0.28125,0.109375 0.015625,0 0.203125,0 0.375,0.015625 0.171875,0.03125 0.265625,0.03125 0.265625,0.171875 0,0.03125 -0.015625,0.0625 -0.03125,0.1875 z m 1.5,-2.875 0.625,-2.46875 C 3.8125,-6.46875 3.828125,-6.5 4.25,-6.5 h 1.296875 c 0.875,0 1.078125,0.59375 1.078125,1.03125 0,0.875 -0.859375,1.8125 -2.0625,1.8125 z m -0.4375,3.34375 c -0.140625,0 -0.15625,0 -0.21875,0 -0.109375,-0.015625 -0.140625,-0.03125 -0.140625,-0.109375 0,-0.03125 0,-0.046875 0.0625,-0.21875 l 0.6875,-2.78125 h 1.875 c 0.953125,0 1.15625,0.734375 1.15625,1.15625 C 6.078125,-1.28125 5.1875,-0.3125 4,-0.3125 Z m 0,0"
               id="id-269b7aae-3bdf-4da2-b587-3be0abac9ce4" />
          </g>
        </g>
        <g
           style="fill:#000000;fill-opacity:1"
           id="id-f95c0e3c-7cf8-4eff-87b8-a030e2c10d41">
          <g
             id="g6108"
             transform="translate(171.754,134.765)">
            <path
               style="stroke:none"
               d="m 2.875,-2.5 c 0,-0.765625 -0.109375,-1.96875 -0.65625,-3.109375 -0.59375,-1.21875 -1.453125,-1.875 -1.546875,-1.875 -0.0625,0 -0.109375,0.046875 -0.109375,0.109375 0,0.03125 0,0.046875 0.1875,0.234375 0.984375,0.984375 1.546875,2.5625 1.546875,4.640625 0,1.71875 -0.359375,3.46875 -1.59375,4.71875 C 0.5625,2.34375 0.5625,2.359375 0.5625,2.390625 0.5625,2.453125 0.609375,2.5 0.671875,2.5 0.765625,2.5 1.671875,1.8125 2.25,0.546875 2.765625,-0.546875 2.875,-1.65625 2.875,-2.5 Z m 0,0"
               id="id-cde5cbc7-229a-4ff4-9eee-954408cfb370" />
          </g>
        </g>
        <g
           style="fill:#000000;fill-opacity:1"
           id="id-cedaf867-76b6-47ac-aef2-6cd56f698a19">
          <g
             id="g6112"
             transform="translate(175.629,136.259)">
            <path
               style="stroke:none"
               d="M 3.984375,-4.625 C 3.984375,-4.640625 4,-4.734375 4,-4.734375 4,-4.78125 3.984375,-4.84375 3.890625,-4.84375 3.75,-4.84375 3.171875,-4.78125 3,-4.765625 c -0.046875,0 -0.15625,0.015625 -0.15625,0.15625 0,0.09375 0.109375,0.09375 0.1875,0.09375 0.328125,0 0.328125,0.0625 0.328125,0.109375 0,0.046875 0,0.09375 -0.015625,0.15625 L 2.9375,-2.65625 c -0.140625,-0.234375 -0.375,-0.421875 -0.71875,-0.421875 -0.890625,0 -1.796875,0.984375 -1.796875,1.984375 0,0.6875 0.453125,1.15625 1.0625,1.15625 0.375,0 0.703125,-0.203125 0.984375,-0.484375 C 2.59375,0 3,0.0625 3.1875,0.0625 c 0.25,0 0.421875,-0.140625 0.546875,-0.359375 0.15625,-0.28125 0.25,-0.671875 0.25,-0.703125 0,-0.09375 -0.09375,-0.09375 -0.109375,-0.09375 -0.109375,0 -0.109375,0.03125 -0.15625,0.21875 C 3.625,-0.53125 3.5,-0.125 3.203125,-0.125 3.03125,-0.125 2.96875,-0.28125 2.96875,-0.46875 c 0,-0.125 0.015625,-0.1875 0.046875,-0.28125 z M 2.5,-0.875 C 2.453125,-0.671875 2.296875,-0.53125 2.140625,-0.40625 2.078125,-0.34375 1.796875,-0.125 1.5,-0.125 c -0.265625,0 -0.515625,-0.1875 -0.515625,-0.671875 0,-0.375 0.203125,-1.140625 0.375,-1.421875 0.3125,-0.5625 0.671875,-0.65625 0.859375,-0.65625 0.484375,0 0.625,0.53125 0.625,0.609375 0,0.015625 -0.015625,0.078125 -0.015625,0.09375 z m 0,0"
               id="id-7775d897-0f07-4f15-9d08-34a2f1ff3dda" />
          </g>
          <g
             id="g6115"
             transform="translate(179.776,136.259)">
            <path
               style="stroke:none"
               d="m 3,-2.625 c -0.171875,0.046875 -0.296875,0.1875 -0.296875,0.328125 0,0.171875 0.140625,0.234375 0.234375,0.234375 0.078125,0 0.34375,-0.046875 0.34375,-0.40625 0,-0.453125 -0.5,-0.609375 -0.9375,-0.609375 -1.078125,0 -1.28125,0.8125 -1.28125,1.015625 0,0.265625 0.15625,0.4375 0.25,0.515625 0.171875,0.140625 0.296875,0.171875 0.78125,0.25 0.15625,0.03125 0.59375,0.109375 0.59375,0.453125 0,0.125 -0.078125,0.390625 -0.359375,0.5625 C 2.046875,-0.125 1.703125,-0.125 1.625,-0.125 1.34375,-0.125 0.953125,-0.1875 0.78125,-0.421875 1.015625,-0.453125 1.171875,-0.625 1.171875,-0.8125 c 0,-0.171875 -0.125,-0.265625 -0.265625,-0.265625 -0.203125,0 -0.40625,0.171875 -0.40625,0.46875 0,0.421875 0.4375,0.671875 1.109375,0.671875 1.296875,0 1.53125,-0.875 1.53125,-1.140625 0,-0.640625 -0.703125,-0.765625 -0.96875,-0.8125 -0.0625,-0.015625 -0.234375,-0.046875 -0.28125,-0.0625 -0.25,-0.046875 -0.375,-0.1875 -0.375,-0.34375 0,-0.15625 0.125,-0.34375 0.28125,-0.453125 0.1875,-0.109375 0.421875,-0.125 0.546875,-0.125 0.140625,0 0.5,0.015625 0.65625,0.25 z m 0,0"
               id="id-0a8c28dd-f953-4cc4-b615-192faacd6cfa" />
          </g>
          <g
             id="g6118"
             transform="translate(183.537,136.259)">
            <path
               style="stroke:none"
               d="m 1.640625,-1.40625 c 0,-0.046875 0.171875,-0.671875 0.171875,-0.703125 0.015625,-0.0625 0.21875,-0.40625 0.453125,-0.578125 0.0625,-0.046875 0.25,-0.1875 0.5625,-0.1875 0.0625,0 0.234375,0 0.375,0.09375 -0.21875,0.0625 -0.296875,0.265625 -0.296875,0.390625 0,0.140625 0.109375,0.25 0.265625,0.25 0.171875,0 0.390625,-0.125 0.390625,-0.421875 0,-0.359375 -0.375,-0.515625 -0.734375,-0.515625 -0.359375,0 -0.671875,0.15625 -0.984375,0.5 -0.125,-0.421875 -0.546875,-0.5 -0.71875,-0.5 -0.25,0 -0.421875,0.171875 -0.546875,0.359375 -0.15625,0.265625 -0.25,0.671875 -0.25,0.71875 0,0.078125 0.09375,0.078125 0.125,0.078125 0.09375,0 0.09375,-0.015625 0.140625,-0.203125 0.109375,-0.421875 0.25,-0.75 0.515625,-0.75 0.1875,0 0.234375,0.15625 0.234375,0.34375 0,0.125 -0.0625,0.390625 -0.125,0.578125 -0.046875,0.1875 -0.109375,0.46875 -0.140625,0.625 L 0.84375,-0.4375 C 0.828125,-0.34375 0.78125,-0.171875 0.78125,-0.15625 0.78125,0 0.90625,0.0625 1.015625,0.0625 1.125,0.0625 1.265625,0 1.3125,-0.125 1.328125,-0.171875 1.40625,-0.484375 1.453125,-0.65625 Z m 0,0"
               id="id-0735e628-3243-4f0c-97e4-63c99df0ee71" />
          </g>
        </g>
      </g>
    </g>
  </g>
</svg>
